<svg width="667" height="369" viewBox="0 0 667 369" fill="none" xmlns="http://www.w3.org/2000/svg">
<g clip-path="url(#clip0)">
<path d="M33.5003 333.326C13.3057 315.896 -0.0538733 290.68 3.86078 265.231C12.0008 212.94 -24.6603 146.473 34.4945 127.009C64.3826 117.132 59.4737 44.5053 83.4588 24.2862C124.904 -10.5745 191.267 33.6404 322.501 27.075C451.001 20.6258 507.795 -42.2977 595.719 49.2696C664.257 120.676 612.434 159.778 660.964 225.49C690.665 265.696 602.057 351.047 602.057 351.047L53.8192 350.814L33.5003 333.326Z" fill="#FFF4F4"/>
<path d="M38.4096 362.202C38.4096 362.202 44.002 288.995 87.8088 296.257C131.367 303.462 126.334 340.414 148.703 335.766C171.073 331.118 172.875 281.267 181.636 221.888C189.217 170.352 219.416 186.156 225.07 202.773C229.793 216.717 231.657 260.525 249.677 263.43C267.697 266.335 273.91 233.218 275.153 216.949C276.396 200.681 282.61 134.446 305.29 133.574C326.727 132.761 336.048 162.334 336.048 218.693C336.048 275.051 338.533 311.654 348.475 326.761C358.417 341.867 371.466 337.8 375.505 335.766C380.538 333.21 395.7 309.33 399.428 250.067C403.156 190.804 428.011 199.519 433.603 208.234C439.196 216.949 454.419 264.883 473.061 263.721C491.702 262.559 496.983 251.229 500.09 224.503C503.197 197.776 507.795 131.599 531.47 132.412C556.014 133.284 565.832 237.924 565.459 269.415C564.962 309.098 596.714 356.102 616.598 356.102" fill="url(#paint0_linear)"/>
<path d="M38.4096 362.202C38.4096 362.202 44.002 288.995 87.8088 296.257C131.367 303.462 126.334 340.414 148.703 335.766C171.073 331.118 172.875 281.267 181.636 221.888C189.217 170.352 219.416 186.156 225.07 202.773C229.793 216.717 231.657 260.525 249.677 263.43C267.697 266.335 273.91 233.218 275.153 216.949C276.396 200.681 282.61 134.446 305.29 133.574C326.727 132.761 336.048 162.334 336.048 218.693C336.048 275.051 338.533 311.654 348.475 326.761C358.417 341.867 371.466 337.8 375.505 335.766C380.538 333.21 395.7 309.33 399.428 250.067C403.156 190.804 428.011 199.519 433.603 208.234C439.196 216.949 454.419 264.883 473.061 263.721C491.702 262.559 496.983 251.229 500.09 224.503C503.197 197.776 507.795 131.599 531.47 132.412C556.014 133.284 565.832 237.924 565.459 269.415C564.962 309.098 596.714 356.102 616.598 356.102" stroke="#FF7A00" stroke-width="1.29678" stroke-miterlimit="10"/>
<path d="M147.15 343.029C151.611 343.029 155.228 339.647 155.228 335.476C155.228 331.304 151.611 327.923 147.15 327.923C142.689 327.923 139.072 331.304 139.072 335.476C139.072 339.647 142.689 343.029 147.15 343.029Z" fill="#F21616"/>
<path d="M37.7882 369C42.2495 369 45.8661 365.618 45.8661 361.447C45.8661 357.275 42.2495 353.894 37.7882 353.894C33.327 353.894 29.7104 357.275 29.7104 361.447C29.7104 365.618 33.327 369 37.7882 369Z" fill="#FF7A00"/>
<path d="M254.648 269.821C259.109 269.821 262.726 266.44 262.726 262.268C262.726 258.097 259.109 254.715 254.648 254.715C250.186 254.715 246.57 258.097 246.57 262.268C246.57 266.44 250.186 269.821 254.648 269.821Z" fill="#F21616"/>
<path d="M204.938 194.929C209.399 194.929 213.016 191.548 213.016 187.376C213.016 183.205 209.399 179.823 204.938 179.823C200.477 179.823 196.86 183.205 196.86 187.376C196.86 191.548 200.477 194.929 204.938 194.929Z" fill="#F21616"/>
<path d="M308.21 141.883C312.671 141.883 316.288 138.501 316.288 134.33C316.288 130.158 312.671 126.777 308.21 126.777C303.749 126.777 300.132 130.158 300.132 134.33C300.132 138.501 303.749 141.883 308.21 141.883Z" fill="#F21616"/>
<path d="M423.04 211.139C427.501 211.139 431.118 207.758 431.118 203.586C431.118 199.415 427.501 196.033 423.04 196.033C418.579 196.033 414.962 199.415 414.962 203.586C414.962 207.758 418.579 211.139 423.04 211.139Z" fill="#F21616"/>
<path d="M478.218 271.1C482.679 271.1 486.296 267.718 486.296 263.547C486.296 259.375 482.679 255.993 478.218 255.993C473.757 255.993 470.14 259.375 470.14 263.547C470.14 267.718 473.757 271.1 478.218 271.1Z" fill="#F21616"/>
<path d="M530.041 141.069C534.502 141.069 538.118 137.688 538.118 133.516C538.118 129.345 534.502 125.963 530.041 125.963C525.579 125.963 521.963 129.345 521.963 133.516C521.963 137.688 525.579 141.069 530.041 141.069Z" fill="#BAC6F2"/>
<path d="M616.349 364.294C620.811 364.294 624.427 360.912 624.427 356.741C624.427 352.569 620.811 349.188 616.349 349.188C611.888 349.188 608.271 352.569 608.271 356.741C608.271 360.912 611.888 364.294 616.349 364.294Z" fill="#FF7A00"/>
<path d="M366.495 343.61C370.956 343.61 374.573 340.228 374.573 336.057C374.573 331.885 370.956 328.504 366.495 328.504C362.034 328.504 358.417 331.885 358.417 336.057C358.417 340.228 362.034 343.61 366.495 343.61Z" fill="#F21616"/>
<path d="M129.627 132.877C146.065 132.877 159.391 120.417 159.391 105.047C159.391 89.6764 146.065 77.2163 129.627 77.2163C113.189 77.2163 99.8635 89.6764 99.8635 105.047C99.8635 120.417 113.189 132.877 129.627 132.877Z" fill="white"/>
<path d="M180.555 110.301C182.458 99.3415 174.498 89.0153 162.777 87.2367C151.057 85.458 140.013 92.9005 138.111 103.86C136.209 114.819 144.168 125.145 155.889 126.924C167.61 128.703 178.653 121.26 180.555 110.301Z" fill="white"/>
<path d="M483.003 94.4724C499.441 94.4724 512.766 82.0123 512.766 66.6419C512.766 51.2716 499.441 38.8115 483.003 38.8115C466.564 38.8115 453.239 51.2716 453.239 66.6419C453.239 82.0123 466.564 94.4724 483.003 94.4724Z" fill="white"/>
<path d="M512.766 88.7204C524.64 88.7204 534.266 79.7199 534.266 68.6174C534.266 57.5148 524.64 48.5144 512.766 48.5144C500.892 48.5144 491.267 57.5148 491.267 68.6174C491.267 79.7199 500.892 88.7204 512.766 88.7204Z" fill="white"/>
<path d="M583.479 194.697L598.267 174.942C599.883 172.27 604.419 172.502 606.594 174.768L621.134 193.36C624.117 196.498 622.563 202.308 618.089 202.366L588.698 202.831C585.467 202.889 582.795 200.449 582.795 197.427C582.733 196.498 582.982 195.568 583.479 194.697Z" fill="#FF7A00"/>
<path d="M56.5537 208.467L41.765 228.163C40.1495 230.836 35.6134 230.603 33.4386 228.279L18.9606 209.629C15.978 206.491 17.5936 200.681 22.0675 200.623L51.4585 200.216C54.6896 200.216 57.3615 202.599 57.3615 205.62C57.2994 206.666 57.0508 207.653 56.5537 208.467Z" fill="#FF7A00"/>
<path d="M78.9232 338.729L76.9348 338.671L66.6821 338.787C66.6821 338.787 64.4452 348.665 63.2024 352.732C63.1403 352.964 62.8917 353.661 62.7675 354.184C62.5811 354.881 62.5189 355.637 62.5189 356.334C62.7675 360.052 64.1966 363.19 67.8006 364.875C71.7153 366.734 74.6978 368.419 78.8611 364.875C83.0243 361.331 83.5835 359.065 81.9679 352.906C80.4766 346.747 79.9174 338.904 78.9232 338.729Z" fill="#09071E"/>
<path d="M121.86 350.989C114.776 348.897 110.054 339.891 110.054 339.891L97.9994 339.252C97.9994 339.252 97.3159 348.374 97.0052 353.022C96.5702 359.181 97.6887 361.912 101.976 361.563C107.693 361.156 130.87 363.074 134.536 360.924C139.383 358.019 128.447 352.906 121.86 350.989Z" fill="#09071E"/>
<path d="M49.4079 176.569V190.049L66.8685 338.846H79.2339C79.2339 338.846 83.5213 236.82 83.5213 233.276C83.5213 229.732 84.6398 218.634 84.6398 218.634C84.6398 218.634 100.174 260.525 100.423 264.011C100.671 267.497 97.8751 339.659 97.8751 339.659L110.24 340.124C110.24 340.124 121.052 291.261 121.052 286.671C121.052 282.081 124.718 258.027 124.159 253.437C123.6 248.847 114.466 176.918 114.466 176.918L95.5139 176.453L49.4079 176.569Z" fill="#585858"/>
<path d="M129.441 160.94L129.254 160.708C129.379 160.882 129.379 160.998 129.441 160.94ZM93.2148 147.867L86.3175 150.54L85.9447 159.487L93.5876 162.334C93.5876 162.276 101.914 162.044 101.914 161.986C101.976 161.637 105.207 161.753 106.699 162.625L132.548 154.317L133.48 148.506C133.48 148.506 135.406 155.769 126.707 141.128L93.2148 147.867ZM124.097 118.41L123.538 115.505L122.233 115.273L124.097 118.41ZM76.3134 40.7289C73.1444 41.949 71.591 46.3066 71.591 46.3066C71.591 46.3066 70.0375 45.4351 70.0375 47.8753C70.0375 50.3156 71.3424 55.8933 72.2745 57.2877C73.8901 59.6698 75.3814 62.1682 76.7484 64.7246C77.9911 67.2811 77.5562 72.5102 76.2513 73.2655C74.9464 74.0208 51.4585 93.7171 51.4585 93.7171L32.0716 149.32V151.528L35.0542 152.515L38.0989 154.956C38.3475 155.014 42.2621 156.989 42.8214 157.338C45.8661 158.79 49.1594 159.836 52.5148 160.591C54.6896 160.998 64.4452 160.824 64.4452 160.824L74.2629 160.591L72.5852 148.913L58.045 148.739L38.1611 147.809L58.2936 104.524L121.798 115.156C110.489 96.0992 97.8129 74.6018 96.6945 72.394C95.7624 70.5347 96.7566 66.1191 97.3158 63.8531C97.8129 61.7615 98.9314 59.205 99.9256 58.3916C100.92 57.5782 102.846 54.2083 102.846 52.7558C102.846 51.2452 103.281 45.4932 101.976 46.7133C101.603 47.0619 100.05 44.8541 99.4907 42.6462C98.6207 39.4507 96.2595 37.1847 93.5255 35.1512C93.5255 35.1512 79.5446 39.4507 76.4377 40.6708" fill="#8D3B25"/>
<path d="M52.0177 81.8645C48.973 83.8399 46.1147 86.4544 45.0583 89.8243C44.002 93.1942 36.6076 119.572 35.6134 122.884C33.1901 131.018 31.7609 133.4 28.9026 142.987C25.3608 154.781 33.4386 156.582 41.7029 158.325C50.2779 160.127 50.34 160.882 52.3284 160.882C52.6391 160.882 62.8296 162.857 63.1403 157.454C63.3888 154.084 62.7053 148.681 61.3383 148.855C58.2314 149.262 48.103 146.763 47.6059 146.473C46.9224 146.066 49.7808 138.687 51.4585 134.097C52.6391 130.727 57.2994 116.667 58.3557 114.052C58.915 112.6 55.7459 127.706 53.8197 142.464C53.7575 143.045 53.0119 148.797 53.1983 148.797C55.4974 148.797 61.8354 148.913 63.7617 149.087C72.6473 150.075 74.325 154.026 73.8279 157.222C72.8337 162.741 51.2099 160.185 51.3342 160.94C51.3342 160.94 47.6059 176.627 49.7186 177.615C51.5206 178.487 75.7542 187.899 80.9116 189.758C81.4708 189.991 82.0922 189.7 82.3407 189.119C82.3407 189.119 82.3407 189.119 82.3407 189.061L85.634 180.23C85.6962 180.113 85.8204 180.055 85.8826 180.113C85.9447 180.113 86.0068 180.172 86.0068 180.23L89.1137 189.874C89.1758 190.107 89.3623 190.339 89.6108 190.455H90.9778L117.945 184.994C117.945 184.994 117.821 175.059 117.759 162.334C117.759 161.056 117.51 156.35 116.578 157.222C115.584 158.093 93.0905 160.882 90.605 159.894C85.3855 157.861 86.7525 152.748 88.5545 150.656C90.6672 148.274 117.2 147.054 117.324 145.253C117.759 137.467 117.076 116.958 116.641 119.456C115.957 123.291 100.485 144.323 100.485 147.983C100.485 151.644 100.236 160.882 100.236 160.882L125.775 159.023C125.775 159.023 134.35 156.234 135.095 151.644C135.841 147.054 134.909 144.962 134.598 138.106C134.35 133.749 127.825 107.545 125.899 100.108C125.65 99.0043 125.464 97.8423 125.34 96.7383C125.091 93.659 123.786 86.4544 116.703 83.3751C107.941 79.4823 101.044 76.403 99.3042 76.403C97.6887 76.403 93.1527 85.641 90.7914 88.2556C89.7351 89.4176 89.9836 89.9986 88.6166 91.7416C87.9331 92.6713 86.5661 92.8456 85.5719 92.2065C85.3233 92.0321 85.1991 91.8578 85.0127 91.6254C84.267 90.5796 83.5835 89.4757 82.9621 88.3137C81.9058 86.3382 73.8279 75.2409 73.8279 75.2409C73.8279 75.2409 55.0624 79.8309 52.0177 81.8645Z" fill="url(#paint1_linear)"/>
<path d="M93.5255 35.2674C93.5255 35.2674 76.3134 41.2518 75.0707 42.1233C73.8901 42.9948 71.5288 46.3066 71.5288 46.3066C71.5288 46.3066 70.3482 45.6675 70.0375 47.4105C70.0375 47.4105 68.2977 44.0406 68.0491 42.1233C67.8006 40.206 68.0491 35.3255 71.3424 32.1299C74.6357 28.8763 81.2844 24.6349 85.3855 25.2159C89.4865 25.7969 91.2264 26.2617 93.8362 28.6439C96.4459 31.026 98.6207 31.7813 99.3664 32.1299C100.112 32.4785 103.095 34.5121 103.592 38.2305C104.089 41.949 102.722 49.444 102.722 49.444C102.722 49.444 103.095 46.539 101.852 47.4686C100.982 48.1077 99.7392 45.4351 99.3042 43.8082C98.8693 42.2395 94.4575 35.6741 93.5255 35.2674Z" fill="url(#paint2_linear)"/>
<g opacity="0.07">
<path d="M99.3042 76.2867C99.18 75.9962 101.168 77.3907 98.8693 75.8219C95.6381 73.6141 97.1916 64.6084 97.1916 64.6084C96.011 66.9906 93.8983 68.7917 91.3507 69.7213C87.2496 71.1738 85.9447 70.0699 92.3449 73.4979C98.6207 76.8678 95.3896 78.0879 94.8925 82.5036" fill="black"/>
</g>
<g opacity="0.07">
<path d="M111.918 108.242L120.493 138.571C120.493 138.571 120.431 143.975 118.753 144.788C117.076 145.601 111.67 146.124 110.427 146.647C109.184 147.17 96.0731 149.727 99.4285 145.427C100.174 144.439 117.945 138.629 109.992 132.529C102.038 126.428 103.467 117.945 107.32 112.135C111.172 106.267 110.365 101.328 110.365 101.328L111.918 108.242Z" fill="black"/>
</g>
<g opacity="0.07">
<path d="M75.6299 188.131C75.6299 188.131 68.2356 224.851 72.0881 239.551C77.929 261.804 69.5404 291.9 69.5404 306.367C69.5404 315.779 73.5172 341.693 73.7658 352.267C73.8279 355.462 76.3134 361.621 74.4493 363.016C73.7036 363.655 68.9812 362.202 66.3714 361.04C65.0044 360.401 64.2588 359.065 64.383 357.728L65.9365 351.454L68.1113 343.145L52.7634 208.873C52.7634 208.873 47.8545 178.951 50.6507 178.835C53.4469 178.719 75.692 188.131 75.6299 188.131Z" fill="black"/>
</g>
<path d="M68.6084 138.745L97.6265 142.115C98.2479 142.29 98.6207 142.754 98.5586 143.394L97.7508 167.912C97.6887 168.667 97.1916 169.713 96.4459 169.481L67.6142 164.31C67.0549 164.136 66.6821 163.671 66.6821 163.148L66.5578 160.475L69.7269 159.72C70.5346 159.488 71.3424 159.081 71.9638 158.616C72.1502 158.5 72.2123 158.384 72.3366 158.267L73.0201 157.338C73.2687 157.105 73.2687 156.699 73.2687 156.35C73.1444 155.769 73.0201 155.014 72.8959 154.607C72.8337 154.433 72.7716 154.317 72.7094 154.2L72.0259 152.748C71.7152 152.109 71.156 151.586 70.4104 151.237L69.9754 151.005L66.8685 149.436L67.1171 139.849C67.1171 139.21 67.7385 138.687 68.422 138.687C68.4841 138.745 68.5462 138.745 68.6084 138.745Z" fill="white"/>
<path d="M538.864 342.913L529.978 344.83C529.978 344.83 527.804 351.395 526.809 354.94C526.747 355.114 526.561 355.753 526.374 356.16C526.25 356.799 526.188 357.38 526.188 358.019C526.374 361.156 527.679 363.887 530.662 365.282C533.955 366.85 536.565 368.303 540.045 365.282C543.524 362.26 544.146 360.343 542.654 355.114C541.163 349.885 538.864 343.029 538.864 342.913Z" fill="#29251A"/>
<path d="M590.562 353.836C584.535 352.093 581.987 345.12 581.987 345.12L569.933 344.539C569.933 344.539 569.684 351.628 569.311 355.462C568.876 360.575 569.933 362.841 573.537 362.551C578.383 362.144 598.267 363.829 601.374 361.97C605.537 359.646 596.217 355.52 590.562 353.836Z" fill="#29251A"/>
<path d="M520.223 183.599C520.223 183.599 515.687 189.41 514.258 205.039C512.828 220.668 515.997 250.416 517.489 256.168C518.98 261.92 524.945 315.605 526.374 319.556C527.804 323.507 529.854 344.888 529.854 344.888L539.423 345.12C539.423 345.12 542.282 317.232 542.282 309.853C542.282 302.474 546.258 232.579 546.01 227.466C545.761 222.353 547.004 223.98 547.004 223.98C547.004 223.98 555.393 248.963 557.878 253.146C560.364 257.33 564.837 265.464 564.837 265.464C564.837 265.464 565.832 291.667 567.074 306.832C568.317 321.996 569.56 345.818 569.56 345.818L582.422 345.585C582.422 345.585 585.405 305.67 585.405 297.303C585.405 288.937 588.077 268.776 588.077 266.452C588.077 264.128 579.688 223.341 579.688 223.341L573.785 183.599H520.223Z" fill="url(#paint3_linear)"/>
<path d="M535.384 51.9424C530.973 53.453 525.38 73.8465 525.38 73.8465L525.318 73.7884L522.895 76.0543L523.889 80.3538L528.176 147.577L550.173 143.161L569.436 124.104L581.428 129.391C581.428 129.391 582.36 153.794 582.484 155.13C582.609 156.466 584.659 193.36 584.659 195.801C584.721 198.415 596.465 209.977 598.454 208.757C604.232 204.981 594.601 197.95 592.302 196.265C590.935 195.278 588.077 160.94 587.828 156.873C587.642 152.806 594.539 142.522 582.547 128.984C573.847 119.049 569.125 93.6589 561.793 64.7246C557.94 49.6764 555.641 45.2026 551.851 45.2026C548.495 45.2026 543.773 49.0373 535.384 51.9424Z" fill="#8D3B25"/>
<path d="M531.656 109.23C531.594 109.404 523.268 113.065 519.726 117.19C516.122 121.315 513.263 127.241 513.263 127.241C513.263 127.241 507.982 138.862 504.378 147.461C502.389 152.051 495.989 170.933 503.694 171.631C510.964 172.27 527.12 156.234 529.606 153.213L532.402 147.402C532.588 146.647 528.052 138.804 528.239 138.106C528.363 136.944 538.926 131.25 540.542 134.62C541.101 135.782 542.53 139.036 542.903 140.024C543.897 142.464 528.611 147.286 528.611 149.494C528.611 152.225 527.306 162.218 525.256 167.157C523.143 172.095 519.974 183.774 519.974 183.774L573.847 183.89C573.847 183.89 572.045 161.463 572.791 154.026C572.791 154.026 575.09 129.624 576.457 127.183C577.824 124.743 580.123 157.338 579.75 164.019C579.502 168.667 583.976 196.73 585.281 197.718C587.393 199.229 592.302 196.207 592.302 196.207C592.302 196.207 592.116 165.472 591.867 160.359C591.619 155.246 591.991 113.878 584.784 106.441C577.576 99.0043 575.587 99.1786 569.622 101.154C563.595 103.129 560.674 104.989 552.472 106.267C547.501 107.08 542.282 106.441 537.621 104.582C538.926 100.224 536.192 107.603 536.565 105.57" fill="#FFE7AA"/>
<path d="M539.672 40.4384C539.672 40.4384 528.922 40.8451 525.877 50.6061C522.833 60.367 522.398 74.137 522.273 76.2867C522.149 78.5527 523.392 93.9495 522.087 98.249C520.844 102.026 517.427 109.056 515.314 113.878C514.506 115.795 513.885 117.771 513.512 119.804L513.263 121.431C513.823 123.116 515.749 124.162 517.675 123.581C517.799 123.523 517.924 123.523 517.986 123.465C519.042 123 520.098 122.535 521.093 121.954C524.324 120.095 528.425 115.273 531.718 113.762C535.136 112.193 539.05 104.872 539.61 104.291C540.169 103.71 539.92 101.909 540.045 100.108C540.355 90.9282 538.553 82.5617 536.254 78.146C533.955 73.7303 528.673 65.0732 532.34 60.0765C536.006 55.0798 543.586 51.129 543.897 49.9669C544.208 48.7468 544.456 54.7893 548.495 56.9391C552.534 59.0888 558.189 64.8408 558.189 66.119C558.189 67.3973 559.556 71.4643 555.703 78.6108C551.851 85.7572 548.806 94.821 554.15 101.677C559.494 108.475 572.915 117.945 573.847 120.095C574.779 122.245 573.847 131.773 573.537 137.119C573.226 142.464 584.411 127.939 583.976 120.966C583.541 113.936 584.908 110.915 577.265 100.282C569.622 89.5919 564.651 71.1738 564.465 66.7001C564.278 62.2263 561.979 49.8507 557.381 46.2485C553.466 43.2272 552.596 40.2641 544.394 40.2641C542.841 40.1479 541.225 40.2641 539.672 40.4384Z" fill="#601B08"/>
<g opacity="0.07">
<path d="M535.509 134.272C533.893 134.911 532.34 135.608 530.848 136.421L529.233 137.177C529.233 137.177 512.083 153.91 512.828 153.038C516.122 149.204 526.374 128.752 529.854 123.988C533.52 119.049 535.509 121.025 539.485 134.097" fill="black"/>
</g>
<g opacity="0.07">
<path d="M534.701 344.772C534.763 344.946 534.763 345.179 534.763 345.353C534.825 346.747 534.763 350.233 533.147 352.441C531.097 355.346 535.944 361.737 535.944 363.306C535.944 364.875 533.707 366.327 532.153 365.921C530.6 365.456 524.137 362.086 526.685 354.765C527.679 351.802 528.301 349.188 528.922 347.561C529.233 346.747 529.543 345.934 529.792 345.12C529.854 344.714 529.854 344.365 529.854 343.958C529.792 343.436 529.792 342.913 529.73 342.332C529.419 339.485 516.557 250.939 516.122 247.511C515.687 244.489 513.823 225.723 514.009 214.742C513.885 213.812 513.885 212.824 513.947 211.953C513.947 211.72 514.071 210.616 514.009 210.21C514.071 209.222 514.133 208.176 514.258 207.188C514.071 206.375 514.195 206.375 514.258 205.039C514.32 203.702 514.258 202.947 514.382 202.134C515.687 194.697 518.545 186.214 519.974 183.832L520.409 182.496C520.409 182.496 523.64 171.282 524.759 169.19C525.691 167.273 528.425 157.396 528.114 155.304C527.99 154.142 532.277 149.727 532.277 149.727L533.147 149.029C533.582 148.971 534.017 149.029 534.452 149.146C535.384 149.552 539.05 146.531 539.672 148.448C544.021 161.405 545.761 166.866 538.118 174.594C530.475 182.321 537.497 189.177 537.621 194.581C537.932 207.944 531.035 206.491 530.6 214.858C530.165 223.224 532.153 229.209 532.277 233.566C532.588 247.917 532.402 250.706 531.594 256.342C530.786 261.978 526.685 272.61 531.283 293.585C535.881 314.559 535.198 316.419 534.701 328.329C534.266 340.124 534.701 344.772 534.701 344.772Z" fill="black"/>
</g>
<path d="M527.617 128.287L527.741 128.229C528.301 127.997 531.47 126.486 533.707 125.615C536.192 124.685 539.237 132.645 539.983 134.214C540.045 134.33 540.045 134.33 539.485 134.388C537.683 134.562 535.819 134.911 534.079 135.317C531.532 135.898 528.611 137.758 528.487 137.816C528.363 137.874 527.617 136.363 526.126 132.819C525.815 132.006 525.07 129.856 525.691 129.333L527.617 128.287Z" fill="#EFEFEF"/>
<path opacity="0.07" d="M547.004 86.0477C548.62 86.6287 550.484 86.222 551.726 85.06C553.901 83.0265 550.919 90.0567 551.416 91.6254C551.851 93.1941 547.004 86.0477 547.004 86.0477Z" fill="black"/>
<path d="M532.34 146.763C532.34 146.763 542.53 140.488 542.654 140.779C542.903 141.36 543.773 143.626 543.773 143.626C543.773 143.626 544.581 145.078 544.332 145.543C544.084 146.008 534.39 149.843 534.39 149.843C533.955 149.785 533.644 149.61 533.52 149.262C533.085 148.448 532.712 147.635 532.34 146.763Z" fill="#EFEFEF"/>
<path d="M273.6 94.7048L280.062 94.2981C280.062 94.2981 281.367 87.0354 286.524 84.5952V76.5191C286.524 76.5191 292.551 79.7728 293.856 80.1214C295.161 80.5281 306.781 75.299 320.14 82.9684C331.387 89.4176 328.902 100.747 327.846 104.117C327.659 104.698 327.348 105.337 326.913 105.86C325.981 107.08 324.117 109.462 323.185 110.392C321.88 111.612 323.993 118.352 322.315 118.875C321.01 119.282 318.463 114.052 317.158 114.459C310.198 116.609 302.68 116.899 295.596 115.098C295.099 114.982 294.602 115.156 294.416 115.621C293.856 116.725 292.676 118.759 291.744 119.34C290.439 120.153 290.439 114.924 289.134 114.111C287.829 113.297 273.6 101.619 273.6 101.619V94.7048V94.7048Z" fill="url(#paint4_linear)"/>
<path d="M327.721 95.983C327.721 95.983 333.003 92.4969 335.799 95.1115C338.595 97.726 338.16 100.457 335.923 101.096C334.246 101.561 331.574 98.9462 332.754 97.2031C333.935 95.4601 335.923 94.5886 338.16 95.983C340.459 97.3774 341.454 100.282 341.64 101.909" stroke="#A3526D" stroke-width="1.03742" stroke-miterlimit="10" stroke-linecap="round"/>
<path d="M287.394 97.5517C288.732 97.5517 289.817 96.5372 289.817 95.2858C289.817 94.0343 288.732 93.0198 287.394 93.0198C286.056 93.0198 284.971 94.0343 284.971 95.2858C284.971 96.5372 286.056 97.5517 287.394 97.5517Z" fill="#FD5D93"/>
<path d="M297.212 81.632C297.212 81.632 306.843 79.1918 313.119 81.8644" stroke="#A3526D" stroke-width="0.259356" stroke-linecap="round" stroke-linejoin="round"/>
<path d="M305.414 72.6264C310.733 72.6264 315.045 68.5944 315.045 63.6207C315.045 58.647 310.733 54.615 305.414 54.615C300.095 54.615 295.783 58.647 295.783 63.6207C295.783 68.5944 300.095 72.6264 305.414 72.6264Z" fill="#F90000"/>
<path d="M305.29 71.0576C309.648 71.0576 313.181 67.754 313.181 63.6788C313.181 59.6036 309.648 56.3 305.29 56.3C300.931 56.3 297.398 59.6036 297.398 63.6788C297.398 67.754 300.931 71.0576 305.29 71.0576Z" stroke="#F90000" stroke-width="0.259356" stroke-miterlimit="10"/>
<path d="M304.19 60.4235C304.19 60.2795 304.139 60.1583 304.037 60.0597C303.937 59.9611 303.767 59.8719 303.528 59.7921C303.195 59.6904 302.951 59.5582 302.798 59.3955C302.646 59.2312 302.57 59.0231 302.57 58.7712C302.57 58.5146 302.645 58.3041 302.793 58.1398C302.943 57.9755 303.149 57.8777 303.41 57.8464V57.3324H303.76V57.8488C304.023 57.8848 304.227 57.9951 304.373 58.1797C304.52 58.3644 304.593 58.617 304.593 58.9378H304.161C304.161 58.7172 304.109 58.5419 304.004 58.4121C303.899 58.2822 303.758 58.2173 303.579 58.2173C303.393 58.2173 303.251 58.2658 303.152 58.3628C303.054 58.4582 303.004 58.592 303.004 58.7641C303.004 58.9237 303.056 59.0513 303.159 59.1467C303.264 59.2406 303.435 59.3266 303.673 59.4049C303.913 59.4815 304.099 59.5668 304.232 59.6607C304.366 59.753 304.465 59.861 304.528 59.9846C304.592 60.1082 304.624 60.2529 304.624 60.4188C304.624 60.6832 304.544 60.896 304.384 61.0572C304.226 61.2183 304.004 61.3138 303.718 61.3435V61.7918H303.371V61.3435C303.08 61.3169 302.851 61.2136 302.685 61.0337C302.521 60.8522 302.439 60.6066 302.439 60.2967H302.873C302.873 60.5142 302.93 60.6817 303.044 60.799C303.159 60.9164 303.32 60.975 303.53 60.975C303.735 60.975 303.896 60.9257 304.014 60.8272C304.131 60.7286 304.19 60.594 304.19 60.4235Z" fill="#FD5D93"/>
<path d="M316.599 53.1044C320.099 53.1044 322.937 50.4511 322.937 47.1781C322.937 43.9051 320.099 41.2518 316.599 41.2518C313.098 41.2518 310.261 43.9051 310.261 47.1781C310.261 50.4511 313.098 53.1044 316.599 53.1044Z" fill="url(#paint5_linear)"/>
<path d="M316.537 52.1167C319.419 52.1167 321.756 49.9316 321.756 47.2362C321.756 44.5408 319.419 42.3557 316.537 42.3557C313.654 42.3557 311.317 44.5408 311.317 47.2362C311.317 49.9316 313.654 52.1167 316.537 52.1167Z" stroke="#F90000" stroke-width="0.259356" stroke-miterlimit="10"/>
<path d="M315.825 44.7886C315.825 44.6939 315.792 44.6141 315.725 44.5492C315.659 44.4843 315.547 44.4256 315.39 44.373C315.17 44.3061 315.01 44.2191 314.909 44.1119C314.809 44.0038 314.759 43.8668 314.759 43.701C314.759 43.532 314.808 43.3935 314.906 43.2854C315.005 43.1772 315.14 43.1128 315.312 43.0922V42.7539H315.543V43.0938C315.716 43.1175 315.85 43.1901 315.946 43.3116C316.043 43.4332 316.091 43.5995 316.091 43.8107H315.807C315.807 43.6654 315.772 43.5501 315.703 43.4646C315.634 43.3791 315.541 43.3363 315.424 43.3363C315.301 43.3363 315.207 43.3683 315.142 43.4321C315.078 43.495 315.045 43.583 315.045 43.6963C315.045 43.8014 315.079 43.8853 315.147 43.9482C315.216 44.01 315.329 44.0666 315.485 44.1181C315.643 44.1686 315.766 44.2247 315.853 44.2865C315.942 44.3473 316.007 44.4184 316.048 44.4997C316.09 44.5811 316.111 44.6764 316.111 44.7855C316.111 44.9596 316.059 45.0997 315.954 45.2058C315.85 45.3119 315.703 45.3747 315.515 45.3943V45.6894H315.286V45.3943C315.095 45.3768 314.944 45.3088 314.835 45.1903C314.727 45.0709 314.673 44.9091 314.673 44.7052H314.959C314.959 44.8484 314.996 44.9586 315.071 45.0358C315.147 45.1131 315.253 45.1517 315.391 45.1517C315.526 45.1517 315.632 45.1193 315.709 45.0544C315.787 44.9895 315.825 44.9009 315.825 44.7886Z" fill="#FD5D93"/>
<path d="M293.856 55.3703C296.362 55.3703 298.392 53.4714 298.392 51.129C298.392 48.7865 296.362 46.8876 293.856 46.8876C291.351 46.8876 289.32 48.7865 289.32 51.129C289.32 53.4714 291.351 55.3703 293.856 55.3703Z" fill="url(#paint6_linear)"/>
<path d="M293.856 54.615C295.915 54.615 297.585 53.0542 297.585 51.1289C297.585 49.2036 295.915 47.6429 293.856 47.6429C291.797 47.6429 290.128 49.2036 290.128 51.1289C290.128 53.0542 291.797 54.615 293.856 54.615Z" stroke="url(#paint7_linear)" stroke-width="0.259356" stroke-miterlimit="10"/>
<path d="M293.337 49.2623C293.337 49.1945 293.313 49.1373 293.265 49.0909C293.218 49.0444 293.138 49.0024 293.025 48.9648C292.868 48.9169 292.753 48.8546 292.681 48.7779C292.61 48.7005 292.574 48.6024 292.574 48.4837C292.574 48.3628 292.609 48.2636 292.679 48.1862C292.75 48.1088 292.847 48.0627 292.97 48.0479V47.8057H293.135V48.049C293.258 48.066 293.355 48.118 293.423 48.205C293.493 48.292 293.527 48.4111 293.527 48.5622H293.324C293.324 48.4582 293.299 48.3757 293.25 48.3145C293.2 48.2533 293.134 48.2227 293.049 48.2227C292.962 48.2227 292.895 48.2455 292.848 48.2912C292.802 48.3362 292.778 48.3993 292.778 48.4804C292.778 48.5556 292.803 48.6157 292.851 48.6606C292.901 48.7049 292.982 48.7454 293.094 48.7823C293.207 48.8184 293.294 48.8586 293.357 48.9028C293.42 48.9464 293.467 48.9972 293.496 49.0555C293.526 49.1137 293.542 49.1819 293.542 49.2601C293.542 49.3847 293.504 49.485 293.429 49.5609C293.354 49.6368 293.25 49.6818 293.115 49.6958V49.9071H292.951V49.6958C292.814 49.6833 292.706 49.6346 292.628 49.5498C292.551 49.4643 292.512 49.3486 292.512 49.2026H292.717C292.717 49.3051 292.743 49.3839 292.797 49.4392C292.851 49.4945 292.927 49.5222 293.026 49.5222C293.123 49.5222 293.199 49.499 293.254 49.4525C293.309 49.4061 293.337 49.3427 293.337 49.2623Z" fill="#FD5D93"/>
</g>
<defs>
<linearGradient id="paint0_linear" x1="327.481" y1="351.076" x2="327.193" y2="88.3892" gradientUnits="userSpaceOnUse">
<stop stop-color="white"/>
<stop offset="1" stop-color="#FF7A00"/>
</linearGradient>
<linearGradient id="paint1_linear" x1="81.7124" y1="75.2409" x2="81.7124" y2="190.455" gradientUnits="userSpaceOnUse">
<stop stop-color="#F21616"/>
<stop offset="1" stop-color="#FF7A00"/>
</linearGradient>
<linearGradient id="paint2_linear" x1="68.0606" y1="37.2661" x2="103.78" y2="37.2661" gradientUnits="userSpaceOnUse">
<stop stop-color="#0B0B0B"/>
<stop offset="1" stop-color="#1A0301"/>
</linearGradient>
<linearGradient id="paint3_linear" x1="513.914" y1="264.705" x2="588.187" y2="264.705" gradientUnits="userSpaceOnUse">
<stop stop-color="#FF7A00"/>
<stop offset="1" stop-color="#EC250D"/>
</linearGradient>
<linearGradient id="paint4_linear" x1="322.013" y1="112.243" x2="279.417" y2="79.1408" gradientUnits="userSpaceOnUse">
<stop stop-color="#EC250D"/>
<stop offset="0.979167" stop-color="#FF7A00"/>
</linearGradient>
<linearGradient id="paint5_linear" x1="308.329" y1="58.7078" x2="319.32" y2="41.1954" gradientUnits="userSpaceOnUse">
<stop stop-color="#F90000"/>
<stop offset="1" stop-color="#EC250D"/>
</linearGradient>
<linearGradient id="paint6_linear" x1="287.963" y1="59.3659" x2="295.831" y2="46.8346" gradientUnits="userSpaceOnUse">
<stop stop-color="#FD5D93"/>
<stop offset="1" stop-color="#EC250D"/>
</linearGradient>
<linearGradient id="paint7_linear" x1="289.832" y1="51.1341" x2="297.89" y2="51.1341" gradientUnits="userSpaceOnUse">
<stop stop-color="#FD5D93"/>
<stop offset="1" stop-color="#EC250D"/>
</linearGradient>
<clipPath id="clip0">
<rect width="667" height="369" fill="white"/>
</clipPath>
</defs>
</svg>
