<svg width="793" height="382" viewBox="0 0 793 382" fill="none" xmlns="http://www.w3.org/2000/svg">
<g clip-path="url(#clip0)">
<path d="M87.8076 380.121L86.4468 379.805C101.62 310.225 139.753 247.04 193.82 201.889C234.696 167.806 283.313 145.012 335.091 135.651C386.87 126.291 440.106 130.673 489.789 148.384C539.472 166.096 583.966 196.554 619.081 236.892C654.197 277.229 678.778 326.119 690.512 378.956L689.152 379.275C657.032 233.852 533.43 132.287 388.573 132.287C245.614 132.287 119.124 236.516 87.8076 380.121Z" fill="#3F3D56"/>
<path d="M733.368 346.999L735.46 362.821L720.814 364.259L722.906 344.842L733.368 346.999Z" fill="#8D3B25"/>
<path d="M664.321 129.81C664.321 129.81 665.715 149.228 665.715 149.947C665.715 150.666 655.951 200.289 655.951 200.289C655.951 200.289 642.002 227.617 655.951 226.898C669.9 226.179 665.715 201.008 665.715 201.008L680.362 159.296L674.085 129.81H664.321Z" fill="#8D3B25"/>
<path d="M687.336 346.999L685.244 362.821L699.891 364.259L697.798 344.842L687.336 346.999Z" fill="#8D3B25"/>
<path d="M671.295 198.85L667.808 203.885C667.808 203.885 665.715 225.46 667.808 232.651C669.9 239.843 674.085 272.925 674.085 275.082C674.085 277.24 674.782 278.678 674.085 279.397C673.387 280.117 671.295 280.117 672.69 281.555C674.085 282.993 674.085 287.308 674.085 287.308V290.904L683.152 344.123C683.152 344.123 677.572 350.595 681.757 350.595C685.942 350.595 701.285 350.595 700.588 343.403L699.193 342.684C699.193 342.684 697.101 295.219 697.798 293.062C698.496 290.904 697.798 286.589 697.798 286.589C697.798 286.589 696.403 284.432 697.798 283.712C699.193 282.993 699.193 277.24 699.193 277.24L705.47 233.371C705.47 233.371 711.05 262.856 714.537 265.733C718.024 268.61 717.327 275.802 717.327 275.802L720.117 339.088C720.117 339.088 717.327 346.28 720.117 347.718C722.906 349.157 734.763 354.191 735.46 346.999C736.158 339.808 739.645 277.24 739.645 274.363C739.645 271.486 738.948 270.048 739.645 267.891C740.343 265.733 738.948 265.733 739.645 265.733C740.343 265.733 738.25 263.576 738.25 262.137V226.898C738.25 226.898 738.948 219.706 739.645 218.268C740.343 216.83 738.948 215.391 739.645 213.234C740.343 211.076 738.25 203.885 738.25 203.885L706.865 195.255L671.295 198.85Z" fill="#F2F2F2"/>
<path d="M695.706 359.944C695.706 359.944 699.193 356.349 694.311 356.349C691.177 356.414 688.089 357.149 685.244 358.506L681.757 371.451C681.757 371.451 667.459 383.317 683.5 381.879C699.542 380.441 697.101 381.519 697.101 381.519C697.101 381.519 701.983 380.081 702.68 378.643C703.378 377.204 701.285 356.349 701.285 356.349C701.285 356.349 699.193 362.102 695.706 359.944Z" fill="#F90000"/>
<path d="M725.696 359.944C725.696 359.944 722.209 356.349 727.091 356.349C730.225 356.414 733.312 357.149 736.158 358.506L739.645 371.451C739.645 371.451 753.943 383.317 737.902 381.879C721.86 380.441 722.209 381.519 722.209 381.519C722.209 381.519 717.327 380.081 716.629 378.643C715.932 377.204 720.117 356.349 720.117 356.349C720.117 356.349 722.209 362.102 725.696 359.944Z" fill="#F90000"/>
<path d="M205.778 127.604H199.569V380.502H205.778V127.604Z" fill="#3F3D56"/>
<path d="M263.081 159.833C263.476 248.265 203.139 320.242 203.139 320.242C203.139 320.242 142.16 248.841 141.765 160.409C141.37 71.9768 201.707 -1.52588e-05 201.707 -1.52588e-05C201.707 -1.52588e-05 262.686 71.4003 263.081 159.833Z" fill="#F90000"/>
<path d="M637.818 275.802H157.275V380.8H637.818V275.802Z" fill="#F2F2F2"/>
<path d="M141.931 287.308L194.24 174.399H612.012L651.069 287.308H141.931Z" fill="#3F3D56"/>
<path d="M466.245 181.59H272.354V247.754H466.245V181.59Z" fill="#F2F2F2"/>
<path d="M284.908 127.653L254.22 193.816H484.379L466.245 127.653H284.908Z" fill="#3F3D56"/>
<path d="M442.532 296.657H289.441V380.8H442.532V296.657Z" fill="#CCCCCC"/>
<path d="M257.708 299.534H176.106V380.8H257.708V299.534Z" fill="#CCCCCC"/>
<path d="M511.23 304.568H469.035V380.8H511.23V304.568Z" fill="#3F3D56"/>
<path d="M793 380.441H0V381.879H793V380.441Z" fill="#3F3D56"/>
<path d="M129.572 213.636H125.475V380.521H129.572V213.636Z" fill="#3F3D56"/>
<path d="M167.386 234.903C167.647 293.259 127.83 340.756 127.83 340.756C127.83 340.756 87.5909 293.64 87.3301 235.284C87.0693 176.928 126.886 129.431 126.886 129.431C126.886 129.431 167.125 176.548 167.386 234.903Z" fill="#F90000"/>
<path opacity="0.1" d="M167.386 234.903C167.647 293.259 127.83 340.756 127.83 340.756C127.83 340.756 87.5909 293.64 87.3301 235.284C87.0693 176.928 126.886 129.431 126.886 129.431C126.886 129.431 167.125 176.548 167.386 234.903Z" fill="black"/>
<path d="M76.3063 213.636H72.2089V380.521H76.3063V213.636Z" fill="#3F3D56"/>
<path d="M114.12 234.903C114.381 293.259 74.5647 340.756 74.5647 340.756C74.5647 340.756 34.3253 293.64 34.0645 235.284C33.8037 176.928 73.6201 129.431 73.6201 129.431C73.6201 129.431 113.859 176.548 114.12 234.903Z" fill="#F90000"/>
<path d="M577.488 308.883H556.913V328.661H577.488V308.883Z" fill="#3F3D56"/>
<path d="M605.037 308.883H584.463V328.661H605.037V308.883Z" fill="#3F3D56"/>
<path d="M577.488 335.852H556.913V356.349H577.488V335.852Z" fill="#3F3D56"/>
<path d="M605.037 335.852H584.463V356.349H605.037V335.852Z" fill="#3F3D56"/>
<path d="M306.241 199.695H290.139V215.172H306.241V199.695Z" fill="#3F3D56"/>
<path d="M327.801 199.695H311.699V215.172H327.801V199.695Z" fill="#3F3D56"/>
<path d="M306.241 220.801H290.139V236.841H306.241V220.801Z" fill="#3F3D56"/>
<path d="M327.801 220.801H311.699V236.841H327.801V220.801Z" fill="#3F3D56"/>
<path d="M426.9 199.695H410.798V215.172H426.9V199.695Z" fill="#3F3D56"/>
<path d="M448.46 199.695H432.358V215.172H448.46V199.695Z" fill="#3F3D56"/>
<path d="M426.9 220.801H410.798V236.841H426.9V220.801Z" fill="#3F3D56"/>
<path d="M448.46 220.801H432.358V236.841H448.46V220.801Z" fill="#3F3D56"/>
<path d="M366.919 199.695H350.817V215.172H366.919V199.695Z" fill="#3F3D56"/>
<path d="M388.479 199.695H372.377V215.172H388.479V199.695Z" fill="#3F3D56"/>
<path d="M366.919 220.801H350.817V236.841H366.919V220.801Z" fill="#3F3D56"/>
<path d="M388.479 220.801H372.377V236.841H388.479V220.801Z" fill="#3F3D56"/>
<path d="M488.589 312.292H478.45V322.037H488.589V312.292Z" fill="#F2F2F2"/>
<path d="M502.164 312.292H492.025V322.037H502.164V312.292Z" fill="#F2F2F2"/>
<path d="M488.589 325.581H478.45V335.68H488.589V325.581Z" fill="#F2F2F2"/>
<path d="M502.164 325.581H492.025V335.68H502.164V325.581Z" fill="#F2F2F2"/>
<path d="M505.651 350.955C507.192 350.955 508.441 349.667 508.441 348.078C508.441 346.489 507.192 345.201 505.651 345.201C504.11 345.201 502.861 346.489 502.861 348.078C502.861 349.667 504.11 350.955 505.651 350.955Z" fill="#F2F2F2"/>
<path d="M442.88 305.647H289.441V307.085H442.88V305.647Z" fill="#F2F2F2"/>
<path d="M442.88 312.12H289.441V313.558H442.88V312.12Z" fill="#F2F2F2"/>
<path d="M442.88 318.592H289.441V320.031H442.88V318.592Z" fill="#F2F2F2"/>
<path d="M442.88 325.065H289.441V326.503H442.88V325.065Z" fill="#F2F2F2"/>
<path d="M442.88 331.537H289.441V332.976H442.88V331.537Z" fill="#F2F2F2"/>
<path d="M442.88 338.01H289.441V339.448H442.88V338.01Z" fill="#F2F2F2"/>
<path d="M442.88 344.482H289.441V345.921H442.88V344.482Z" fill="#F2F2F2"/>
<path d="M442.88 350.955H289.441V352.393H442.88V350.955Z" fill="#F2F2F2"/>
<path d="M442.88 357.427H289.441V358.866H442.88V357.427Z" fill="#F2F2F2"/>
<path d="M442.88 363.9H289.441V365.338H442.88V363.9Z" fill="#F2F2F2"/>
<path d="M442.88 370.372H289.441V371.811H442.88V370.372Z" fill="#F2F2F2"/>
<path d="M257.708 305.647H176.106V307.085H257.708V305.647Z" fill="#F2F2F2"/>
<path d="M257.708 312.12H176.106V313.558H257.708V312.12Z" fill="#F2F2F2"/>
<path d="M257.708 318.592H176.106V320.031H257.708V318.592Z" fill="#F2F2F2"/>
<path d="M257.708 325.065H176.106V326.503H257.708V325.065Z" fill="#F2F2F2"/>
<path d="M257.708 331.537H176.106V332.976H257.708V331.537Z" fill="#F2F2F2"/>
<path d="M257.708 338.01H176.106V339.448H257.708V338.01Z" fill="#F2F2F2"/>
<path d="M257.708 344.482H176.106V345.921H257.708V344.482Z" fill="#F2F2F2"/>
<path d="M257.708 350.955H176.106V352.393H257.708V350.955Z" fill="#F2F2F2"/>
<path d="M257.708 357.427H176.106V358.866H257.708V357.427Z" fill="#F2F2F2"/>
<path d="M257.708 363.9H176.106V365.338H257.708V363.9Z" fill="#F2F2F2"/>
<path d="M257.708 370.372H176.106V371.811H257.708V370.372Z" fill="#F2F2F2"/>
<path d="M611.663 232.292C642.864 232.292 668.157 206.211 668.157 174.039C668.157 141.867 642.864 115.786 611.663 115.786C580.463 115.786 555.17 141.867 555.17 174.039C555.17 206.211 580.463 232.292 611.663 232.292Z" fill="#F90000"/>
<path d="M647.233 168.286H617.243V137.361H606.084V168.286H576.093V179.792H606.084V210.717H617.243V179.792H647.233V168.286Z" fill="white"/>
<path d="M680.362 72.9957C690.377 72.9957 698.496 64.6241 698.496 54.2973C698.496 43.9705 690.377 35.5989 680.362 35.5989C670.347 35.5989 662.228 43.9705 662.228 54.2973C662.228 64.6241 670.347 72.9957 680.362 72.9957Z" fill="#8D3B25"/>
<path d="M674.085 67.9615C674.085 67.9615 676.875 82.3449 676.875 84.5024C676.875 86.6599 688.731 93.1325 688.731 93.1325L701.983 75.8724C701.983 75.8724 693.613 63.6465 693.613 60.7698L674.085 67.9615Z" fill="#8D3B25"/>
<path d="M684.547 87.66C684.547 87.66 678.468 85.9916 676.625 83.2299C676.625 83.2299 657.346 102.763 657.346 106.358L672.69 134.406C672.69 134.406 672.69 144.474 674.085 145.194C675.48 145.913 674.085 145.194 674.085 148.07C674.085 150.947 669.9 169.645 671.295 172.522C672.69 175.399 674.085 173.241 672.69 177.556C671.295 181.871 667.808 204.885 667.808 204.885C667.808 204.885 680.362 200.57 698.496 207.761C716.629 214.953 738.25 204.885 738.25 204.885C738.25 204.885 732.671 191.94 734.066 187.625C735.46 183.31 730.578 175.399 730.578 175.399L727.091 109.235C727.091 109.235 731.973 79.7491 728.486 78.3108L721.511 75.4341L699.176 72.6035C699.176 72.6035 693.613 86.9408 684.547 87.66Z" fill="#FE791A"/>
<path d="M664.321 100.324L657.346 105.358C657.346 105.358 653.859 116.146 657.346 121.18C660.833 126.214 662.228 133.406 662.228 133.406L676.177 131.968L664.321 100.324Z" fill="#FE791A"/>
<path d="M715.932 106.797C715.932 106.797 711.893 117.506 712.737 128.101C712.891 129.998 713.51 131.824 714.537 133.406V133.406L665.057 157.628C665.057 157.628 642.7 160.015 648.279 170.084C653.859 180.152 674.085 165.049 674.085 165.049C674.085 165.049 727.091 157.139 731.276 149.228C735.46 141.317 738.25 108.235 738.25 108.235L715.932 106.797Z" fill="#8D3B25"/>
<path d="M666.517 34.5363L663.371 33.2378C663.371 33.2378 669.948 25.7714 679.099 26.4207L676.525 23.4991C676.525 23.4991 682.816 20.9021 688.536 27.7191C691.542 31.3028 695.02 35.5151 697.189 40.2602H700.557L699.152 43.4523L704.072 46.6444L699.022 46.0711C699.5 48.8269 699.336 51.6605 698.544 54.3383L698.679 56.8614C698.679 56.8614 692.825 47.5212 692.825 46.2227V49.4689C692.825 49.4689 689.679 46.5473 689.679 44.5996L687.964 46.872L687.106 43.3011L676.525 46.872L678.241 43.9504L671.664 44.9242L674.238 41.3534C674.238 41.3534 666.803 45.5734 666.517 49.1443C666.231 52.7153 662.514 57.2599 662.514 57.2599L660.798 54.0137C660.798 54.0137 658.224 39.4056 666.517 34.5363Z" fill="#2F2E41"/>
<path d="M718.024 77.3107H728.486C728.486 77.3107 736.158 78.7491 738.25 93.1325C740.343 107.516 742.435 111.112 740.343 111.112C738.25 111.112 713.142 110.393 713.142 109.673C713.142 108.954 718.024 77.3107 718.024 77.3107Z" fill="#FE791A"/>
</g>
<defs>
<clipPath id="clip0">
<rect width="793" height="382" fill="white"/>
</clipPath>
</defs>
</svg>
