<svg width="735" height="487" viewBox="0 0 735 487" fill="none" xmlns="http://www.w3.org/2000/svg">
<g clip-path="url(#clip0)">
<path opacity="0.1" d="M367.5 487C570.465 487 735 468.547 735 445.783C735 423.02 570.465 404.567 367.5 404.567C164.535 404.567 0 423.02 0 445.783C0 468.547 164.535 487 367.5 487Z" fill="#F90000"/>
<path d="M628.817 465.986C628.817 465.986 647.984 443.482 646.434 421.154C645.719 411.792 648.314 402.47 653.83 394.585C656.481 390.861 659.495 387.369 662.836 384.152" stroke="#535461" stroke-width="2" stroke-miterlimit="10"/>
<path d="M661.951 370.076C660.599 373.201 662.813 384.522 662.813 384.522C662.813 384.522 672.865 377.717 674.216 374.591C674.864 373.091 674.839 371.414 674.148 369.931C673.456 368.447 672.154 367.277 670.529 366.679C668.903 366.08 667.086 366.102 665.477 366.739C663.869 367.376 662.6 368.576 661.951 370.076V370.076Z" fill="#F90000"/>
<path d="M644.327 383.655C645.034 386.956 653.56 395.349 653.56 395.349C653.56 395.349 657.99 384.596 657.283 381.295C657.115 380.51 656.781 379.763 656.301 379.097C655.82 378.431 655.202 377.859 654.481 377.414C653.761 376.968 652.953 376.658 652.102 376.501C651.252 376.344 650.377 376.343 649.526 376.498C648.675 376.653 647.866 376.961 647.144 377.404C646.423 377.848 645.803 378.418 645.32 379.083C644.837 379.748 644.501 380.493 644.331 381.278C644.161 382.062 644.159 382.87 644.327 383.655V383.655Z" fill="#F90000"/>
<path d="M631.978 413.401C634.394 415.922 646.346 419.195 646.346 419.195C646.346 419.195 644.286 407.849 641.87 405.329C641.296 404.729 640.599 404.24 639.82 403.889C639.041 403.538 638.194 403.332 637.328 403.283C636.463 403.234 635.595 403.342 634.775 403.603C633.955 403.863 633.198 404.27 632.549 404.8C631.899 405.33 631.369 405.973 630.989 406.692C630.608 407.412 630.385 408.193 630.332 408.992C630.279 409.79 630.397 410.591 630.68 411.348C630.962 412.104 631.403 412.802 631.978 413.401V413.401Z" fill="#F90000"/>
<path d="M628.127 437.849C630.046 440.71 641.227 445.8 641.227 445.8C641.227 445.8 641.275 434.296 639.355 431.435C638.899 430.755 638.302 430.164 637.598 429.696C636.894 429.228 636.098 428.893 635.253 428.709C634.409 428.526 633.534 428.497 632.678 428.626C631.822 428.755 631.001 429.038 630.264 429.459C629.526 429.88 628.886 430.432 628.379 431.081C627.873 431.731 627.51 432.467 627.311 433.246C627.113 434.025 627.083 434.832 627.223 435.622C627.363 436.412 627.67 437.169 628.127 437.849V437.849Z" fill="#F90000"/>
<path d="M666.176 400.695C662.805 401.978 650.511 400.067 650.511 400.067C650.511 400.067 657.768 390.714 661.14 389.431C662.758 388.815 664.576 388.817 666.193 389.437C667.81 390.058 669.094 391.246 669.762 392.739C670.429 394.233 670.427 395.911 669.754 397.403C669.082 398.895 667.795 400.079 666.176 400.695V400.695Z" fill="#F90000"/>
<path d="M661.279 429.235C657.646 429.528 646.535 424.311 646.535 424.311C646.535 424.311 656.493 417.389 660.126 417.096C660.99 417.025 661.861 417.112 662.689 417.352C663.517 417.592 664.285 417.981 664.95 418.495C665.615 419.009 666.164 419.639 666.565 420.349C666.966 421.059 667.211 421.835 667.287 422.633C667.362 423.43 667.267 424.234 667.006 424.997C666.745 425.761 666.323 426.469 665.766 427.083C665.208 427.696 664.524 428.201 663.754 428.571C662.984 428.94 662.143 429.165 661.279 429.235V429.235Z" fill="#F90000"/>
<path d="M652.394 456.371C648.867 457.227 636.96 453.817 636.96 453.817C636.96 453.817 645.508 445.442 649.035 444.586C650.728 444.175 652.53 444.402 654.042 445.216C655.555 446.03 656.655 447.366 657.1 448.929C657.546 450.491 657.3 452.153 656.417 453.549C655.535 454.945 654.088 455.96 652.394 456.371V456.371Z" fill="#F90000"/>
<path opacity="0.25" d="M661.951 370.076C660.599 373.201 662.813 384.522 662.813 384.522C662.813 384.522 672.865 377.717 674.216 374.591C674.864 373.091 674.839 371.414 674.148 369.931C673.456 368.447 672.154 367.277 670.529 366.679C668.903 366.08 667.086 366.102 665.477 366.739C663.869 367.376 662.6 368.576 661.951 370.076V370.076Z" fill="black"/>
<path opacity="0.25" d="M644.327 383.655C645.034 386.956 653.56 395.349 653.56 395.349C653.56 395.349 657.99 384.596 657.283 381.295C657.115 380.51 656.781 379.763 656.301 379.097C655.82 378.431 655.202 377.859 654.481 377.414C653.761 376.968 652.953 376.658 652.102 376.501C651.252 376.344 650.377 376.343 649.526 376.498C648.675 376.653 647.866 376.961 647.144 377.404C646.423 377.848 645.803 378.418 645.32 379.083C644.837 379.748 644.501 380.493 644.331 381.278C644.161 382.062 644.159 382.87 644.327 383.655V383.655Z" fill="black"/>
<path opacity="0.25" d="M631.978 413.401C634.394 415.922 646.346 419.195 646.346 419.195C646.346 419.195 644.286 407.849 641.87 405.329C641.296 404.729 640.599 404.24 639.82 403.889C639.041 403.538 638.194 403.332 637.328 403.283C636.463 403.234 635.595 403.342 634.775 403.603C633.955 403.863 633.198 404.27 632.549 404.8C631.899 405.33 631.369 405.973 630.989 406.692C630.608 407.412 630.385 408.193 630.332 408.992C630.279 409.79 630.397 410.591 630.68 411.348C630.962 412.104 631.403 412.802 631.978 413.401V413.401Z" fill="black"/>
<path opacity="0.25" d="M628.127 437.849C630.046 440.71 641.227 445.8 641.227 445.8C641.227 445.8 641.275 434.296 639.355 431.435C638.899 430.755 638.302 430.164 637.598 429.696C636.894 429.228 636.098 428.893 635.253 428.709C634.409 428.526 633.534 428.497 632.678 428.626C631.822 428.755 631.001 429.038 630.264 429.459C629.526 429.88 628.886 430.432 628.379 431.081C627.873 431.731 627.51 432.467 627.311 433.246C627.113 434.025 627.083 434.832 627.223 435.622C627.363 436.412 627.67 437.169 628.127 437.849V437.849Z" fill="black"/>
<path opacity="0.25" d="M666.176 400.695C662.805 401.978 650.511 400.067 650.511 400.067C650.511 400.067 657.768 390.714 661.14 389.431C662.758 388.815 664.576 388.817 666.193 389.437C667.81 390.058 669.094 391.246 669.762 392.739C670.429 394.233 670.427 395.911 669.754 397.403C669.082 398.895 667.795 400.079 666.176 400.695V400.695Z" fill="black"/>
<path opacity="0.25" d="M661.279 429.235C657.646 429.528 646.535 424.311 646.535 424.311C646.535 424.311 656.493 417.389 660.126 417.096C660.99 417.025 661.861 417.112 662.689 417.352C663.517 417.592 664.285 417.981 664.95 418.495C665.615 419.009 666.164 419.639 666.565 420.349C666.966 421.059 667.211 421.835 667.287 422.633C667.362 423.43 667.267 424.234 667.006 424.997C666.745 425.761 666.323 426.469 665.766 427.083C665.208 427.696 664.524 428.201 663.754 428.571C662.984 428.94 662.143 429.165 661.279 429.235V429.235Z" fill="black"/>
<path opacity="0.25" d="M652.394 456.371C648.867 457.227 636.96 453.817 636.96 453.817C636.96 453.817 645.508 445.442 649.035 444.586C650.728 444.175 652.53 444.402 654.042 445.216C655.555 446.03 656.655 447.366 657.1 448.929C657.546 450.491 657.3 452.153 656.417 453.549C655.535 454.945 654.088 455.96 652.394 456.371V456.371Z" fill="black"/>
<path d="M628.979 465.049C628.979 465.049 656.385 451.642 664.774 430.65C668.231 421.824 674.698 414.271 683.204 409.126C687.262 406.712 691.552 404.646 696.019 402.955" stroke="#535461" stroke-width="2" stroke-miterlimit="10"/>
<path d="M701.391 389.755C698.783 392.107 695.836 403.284 695.836 403.284C695.836 403.284 708.014 400.821 710.622 398.469C711.874 397.34 712.589 395.798 712.609 394.182C712.629 392.566 711.953 391.009 710.729 389.854C709.505 388.698 707.833 388.039 706.082 388.02C704.331 388.001 702.644 388.626 701.391 389.755V389.755Z" fill="#F90000"/>
<path d="M679.316 395.58C678.512 398.862 682.622 409.723 682.622 409.723C682.622 409.723 691.393 401.548 692.197 398.266C692.388 397.486 692.411 396.678 692.264 395.89C692.117 395.101 691.803 394.347 691.34 393.671C690.877 392.994 690.274 392.408 689.566 391.947C688.858 391.485 688.058 391.157 687.212 390.981C686.367 390.804 685.491 390.783 684.637 390.919C683.782 391.055 682.965 391.344 682.232 391.771C681.499 392.199 680.864 392.755 680.364 393.408C679.863 394.062 679.507 394.8 679.316 395.58V395.58Z" fill="#F90000"/>
<path d="M654.963 418.157C656.064 421.365 665.554 428.826 665.554 428.826C665.554 428.826 668.653 417.684 667.552 414.476C667.29 413.713 666.867 413.006 666.309 412.393C665.751 411.781 665.067 411.277 664.297 410.908C663.528 410.54 662.687 410.315 661.823 410.246C660.959 410.178 660.089 410.267 659.262 410.509C658.436 410.75 657.669 411.14 657.005 411.655C656.342 412.17 655.795 412.801 655.396 413.511C654.997 414.221 654.753 414.997 654.678 415.794C654.604 416.592 654.701 417.394 654.963 418.157V418.157Z" fill="#F90000"/>
<path d="M640.705 439.068C641.204 442.401 649.19 451.235 649.19 451.235C649.19 451.235 654.286 440.736 653.787 437.403C653.669 436.61 653.382 435.847 652.944 435.156C652.506 434.466 651.925 433.862 651.233 433.379C650.542 432.896 649.755 432.543 648.916 432.341C648.077 432.138 647.203 432.091 646.344 432.2C645.485 432.309 644.658 432.574 643.909 432.978C643.161 433.382 642.507 433.919 641.983 434.556C641.459 435.194 641.077 435.921 640.858 436.695C640.639 437.469 640.587 438.275 640.705 439.068V439.068Z" fill="#F90000"/>
<path d="M691.807 419.328C688.161 419.24 677.761 412.896 677.761 412.896C677.761 412.896 688.504 407.059 692.15 407.146C693.9 407.188 695.561 407.87 696.767 409.042C697.973 410.214 698.625 411.78 698.579 413.395C698.534 415.01 697.795 416.543 696.525 417.655C695.255 418.768 693.558 419.37 691.807 419.328H691.807Z" fill="#F90000"/>
<path d="M674.797 443.588C671.346 442.498 663.48 433.573 663.48 433.573C663.48 433.573 675.624 430.97 679.074 432.059C680.731 432.583 682.094 433.692 682.865 435.143C683.635 436.594 683.749 438.268 683.182 439.797C682.615 441.326 681.413 442.584 679.84 443.295C678.268 444.006 676.453 444.111 674.797 443.588V443.588Z" fill="#F90000"/>
<path d="M654.757 465.074C651.157 464.538 641.769 456.969 641.769 456.969C641.769 456.969 653.261 452.508 656.861 453.045C658.59 453.302 660.137 454.183 661.162 455.493C662.187 456.803 662.606 458.435 662.327 460.03C662.048 461.625 661.094 463.053 659.674 463.999C658.254 464.945 656.486 465.332 654.757 465.074V465.074Z" fill="#F90000"/>
<path opacity="0.1" d="M418.87 57.6752C382.556 56.5118 347.969 45.6946 314.943 33.8598C281.916 22.025 249.202 8.91303 213.758 2.64196C190.961 -1.39148 164.89 -1.96215 146.521 9.31603C128.845 20.169 123.133 38.9035 120.062 56.2868C117.752 69.3653 116.393 83.1301 122.724 95.3739C127.119 103.874 134.923 111.02 140.319 119.162C159.097 147.493 145.824 182.429 125.475 210.092C115.93 223.068 104.858 235.447 97.4918 249.261C90.1259 263.074 86.7185 278.902 93.1629 292.993C99.5506 306.96 114.773 317.451 131.262 324.829C164.753 339.816 204.218 344.105 242.702 346.534C327.891 351.911 413.534 349.583 498.949 347.251C530.559 346.389 562.308 345.514 593.404 341.004C610.672 338.499 628.501 334.524 641.038 324.928C656.953 312.745 660.897 292.117 650.233 276.841C632.345 251.219 582.886 244.854 570.383 217.357C563.501 202.221 570.569 185.361 580.57 171.324C602.025 141.21 637.987 114.791 639.881 80.3711C641.182 56.7308 623.895 33.0556 597.164 21.8704C569.145 10.1461 530.293 11.6209 509.623 31.0286C488.338 51.013 450.933 58.7024 418.87 57.6752Z" fill="#F90000"/>
<path d="M356.694 427.297C370.33 427.297 381.385 416.47 381.385 403.114C381.385 389.758 370.33 378.931 356.694 378.931C343.058 378.931 332.003 389.758 332.003 403.114C332.003 416.47 343.058 427.297 356.694 427.297Z" fill="#FBD56F"/>
<path opacity="0.1" d="M356.694 427.297C370.33 427.297 381.385 416.47 381.385 403.114C381.385 389.758 370.33 378.931 356.694 378.931C343.058 378.931 332.003 389.758 332.003 403.114C332.003 416.47 343.058 427.297 356.694 427.297Z" fill="black"/>
<path d="M360.955 427.297C374.591 427.297 385.646 416.711 385.646 403.653C385.646 390.594 374.591 380.008 360.955 380.008C347.319 380.008 336.264 390.594 336.264 403.653C336.264 416.711 347.319 427.297 360.955 427.297Z" fill="#FBD56F"/>
<path d="M370.956 425.08L368.387 423.76C368.387 423.76 367.186 428.386 367.579 431.682C367.618 432.016 367.767 432.332 368.006 432.585C368.245 432.839 368.563 433.019 368.916 433.101C374.825 434.454 402.984 440.222 422.349 432.098C422.629 431.98 422.872 431.796 423.052 431.565C423.233 431.334 423.345 431.064 423.378 430.781C423.615 428.755 422.774 424.575 422.439 423.76C421.716 422.007 370.956 425.08 370.956 425.08Z" fill="#FBD56F"/>
<path opacity="0.1" d="M370.956 425.08L368.387 423.76C368.387 423.76 367.186 428.386 367.579 431.682C367.618 432.016 367.767 432.332 368.006 432.585C368.245 432.839 368.563 433.019 368.916 433.101C374.825 434.454 402.984 440.222 422.349 432.098C422.629 431.98 422.872 431.796 423.052 431.565C423.233 431.334 423.345 431.064 423.378 430.781C423.615 428.755 422.774 424.575 422.439 423.76C421.716 422.007 370.956 425.08 370.956 425.08Z" fill="black"/>
<path d="M395.413 429.381C410.339 429.381 422.439 426.865 422.439 423.76C422.439 420.656 410.339 418.139 395.413 418.139C380.487 418.139 368.387 420.656 368.387 423.76C368.387 426.865 380.487 429.381 395.413 429.381Z" fill="#FBD56F"/>
<path d="M381.281 416.786L378.713 415.467C378.713 415.467 377.512 420.092 377.904 423.389C377.943 423.723 378.092 424.038 378.331 424.292C378.57 424.546 378.888 424.725 379.242 424.807C385.15 426.161 413.31 431.929 432.674 423.805C432.955 423.687 433.197 423.503 433.378 423.272C433.558 423.041 433.67 422.77 433.703 422.487C433.941 420.461 433.1 416.281 432.764 415.467C432.042 413.714 381.281 416.786 381.281 416.786Z" fill="#FBD56F"/>
<path opacity="0.1" d="M381.281 416.786L378.713 415.467C378.713 415.467 377.512 420.092 377.904 423.389C377.943 423.723 378.092 424.038 378.331 424.292C378.57 424.546 378.888 424.725 379.242 424.807C385.15 426.161 413.31 431.929 432.674 423.805C432.955 423.687 433.197 423.503 433.378 423.272C433.558 423.041 433.67 422.77 433.703 422.487C433.941 420.461 433.1 416.281 432.764 415.467C432.042 413.714 381.281 416.786 381.281 416.786Z" fill="black"/>
<path d="M405.738 421.088C420.664 421.088 432.764 418.571 432.764 415.467C432.764 412.362 420.664 409.846 405.738 409.846C390.813 409.846 378.713 412.362 378.713 415.467C378.713 418.571 390.813 421.088 405.738 421.088Z" fill="#FBD56F"/>
<path d="M390.409 405.886L387.841 404.567C387.841 404.567 386.64 409.192 387.032 412.489C387.071 412.823 387.22 413.138 387.459 413.392C387.698 413.646 388.016 413.825 388.37 413.907C394.278 415.261 422.438 421.029 441.802 412.905C442.083 412.786 442.325 412.603 442.506 412.372C442.686 412.141 442.798 411.87 442.831 411.587C443.069 409.561 442.228 405.381 441.892 404.567C441.17 402.814 390.409 405.886 390.409 405.886Z" fill="#FBD56F"/>
<path opacity="0.1" d="M390.409 405.886L387.841 404.567C387.841 404.567 386.64 409.192 387.032 412.489C387.071 412.823 387.22 413.138 387.459 413.392C387.698 413.646 388.016 413.825 388.37 413.907C394.278 415.261 422.438 421.029 441.802 412.905C442.083 412.786 442.325 412.603 442.506 412.372C442.686 412.141 442.798 411.87 442.831 411.587C443.069 409.561 442.228 405.381 441.892 404.567C441.17 402.814 390.409 405.886 390.409 405.886Z" fill="black"/>
<path d="M414.867 410.188C429.792 410.188 441.892 407.671 441.892 404.567C441.892 401.462 429.792 398.946 414.867 398.946C399.941 398.946 387.841 401.462 387.841 404.567C387.841 407.671 399.941 410.188 414.867 410.188Z" fill="#FBD56F"/>
<path d="M380.301 394.539L377.732 393.22C377.732 393.22 376.531 397.845 376.924 401.142C376.962 401.476 377.111 401.791 377.35 402.045C377.59 402.299 377.907 402.479 378.261 402.56C384.169 403.914 412.329 409.682 431.693 401.558C431.974 401.44 432.217 401.256 432.397 401.025C432.578 400.794 432.69 400.523 432.722 400.24C432.96 398.214 432.119 394.034 431.783 393.22C431.061 391.467 380.301 394.539 380.301 394.539Z" fill="#FBD56F"/>
<path opacity="0.1" d="M380.301 394.539L377.732 393.22C377.732 393.22 376.531 397.845 376.924 401.142C376.962 401.476 377.111 401.791 377.35 402.045C377.59 402.299 377.907 402.479 378.261 402.56C384.169 403.914 412.329 409.682 431.693 401.558C431.974 401.44 432.217 401.256 432.397 401.025C432.578 400.794 432.69 400.523 432.722 400.24C432.96 398.214 432.119 394.034 431.783 393.22C431.061 391.467 380.301 394.539 380.301 394.539Z" fill="black"/>
<path d="M404.758 398.841C419.684 398.841 431.783 396.324 431.783 393.22C431.783 390.115 419.684 387.599 404.758 387.599C389.832 387.599 377.732 390.115 377.732 393.22C377.732 396.324 389.832 398.841 404.758 398.841Z" fill="#FBD56F"/>
<path d="M403.041 385.433L400.473 384.114C400.473 384.114 399.272 388.739 399.665 392.036C399.703 392.37 399.852 392.685 400.091 392.939C400.331 393.193 400.648 393.373 401.002 393.454C406.91 394.808 435.07 400.576 454.434 392.452C454.715 392.334 454.958 392.15 455.138 391.919C455.318 391.688 455.431 391.417 455.463 391.134C455.701 389.108 454.86 384.928 454.524 384.114C453.802 382.361 403.041 385.433 403.041 385.433Z" fill="#FBD56F"/>
<path opacity="0.1" d="M403.041 385.433L400.473 384.114C400.473 384.114 399.272 388.739 399.665 392.036C399.703 392.37 399.852 392.685 400.091 392.939C400.331 393.193 400.648 393.373 401.002 393.454C406.91 394.808 435.07 400.576 454.434 392.452C454.715 392.334 454.958 392.15 455.138 391.919C455.318 391.688 455.431 391.417 455.463 391.134C455.701 389.108 454.86 384.928 454.524 384.114C453.802 382.361 403.041 385.433 403.041 385.433Z" fill="black"/>
<path d="M427.499 389.735C442.425 389.735 454.524 387.218 454.524 384.114C454.524 381.009 442.425 378.493 427.499 378.493C412.573 378.493 400.473 381.009 400.473 384.114C400.473 387.218 412.573 389.735 427.499 389.735Z" fill="#FBD56F"/>
<path d="M387.677 379.313L385.108 377.993C385.108 377.993 383.907 382.619 384.3 385.915C384.338 386.25 384.487 386.565 384.727 386.819C384.966 387.072 385.284 387.252 385.637 387.334C391.545 388.688 419.705 394.456 439.069 386.331C439.35 386.213 439.593 386.03 439.773 385.798C439.954 385.567 440.066 385.297 440.099 385.014C440.336 382.988 439.495 378.808 439.16 377.993C438.437 376.24 387.677 379.313 387.677 379.313Z" fill="#FBD56F"/>
<path opacity="0.1" d="M387.677 379.313L385.108 377.993C385.108 377.993 383.907 382.619 384.3 385.915C384.338 386.25 384.487 386.565 384.727 386.819C384.966 387.072 385.284 387.252 385.637 387.334C391.545 388.688 419.705 394.456 439.069 386.331C439.35 386.213 439.593 386.03 439.773 385.798C439.954 385.567 440.066 385.297 440.099 385.014C440.336 382.988 439.495 378.808 439.16 377.993C438.437 376.24 387.677 379.313 387.677 379.313Z" fill="black"/>
<path d="M412.134 383.614C427.06 383.614 439.16 381.098 439.16 377.993C439.16 374.889 427.06 372.372 412.134 372.372C397.208 372.372 385.108 374.889 385.108 377.993C385.108 381.098 397.208 383.614 412.134 383.614Z" fill="#FBD56F"/>
<path d="M397.935 367.497L395.367 366.178C395.367 366.178 394.165 370.803 394.558 374.1C394.597 374.434 394.746 374.749 394.985 375.003C395.224 375.257 395.542 375.436 395.895 375.518C401.804 376.872 429.963 382.64 449.328 374.516C449.608 374.398 449.851 374.214 450.031 373.983C450.212 373.752 450.324 373.481 450.357 373.198C450.594 371.172 449.753 366.992 449.418 366.178C448.695 364.425 397.935 367.497 397.935 367.497Z" fill="#FBD56F"/>
<path opacity="0.1" d="M397.935 367.497L395.367 366.178C395.367 366.178 394.165 370.803 394.558 374.1C394.597 374.434 394.746 374.749 394.985 375.003C395.224 375.257 395.542 375.436 395.895 375.518C401.804 376.872 429.963 382.64 449.328 374.516C449.608 374.398 449.851 374.214 450.031 373.983C450.212 373.752 450.324 373.481 450.357 373.198C450.594 371.172 449.753 366.992 449.418 366.178C448.695 364.425 397.935 367.497 397.935 367.497Z" fill="black"/>
<path d="M422.392 371.799C437.318 371.799 449.418 369.282 449.418 366.178C449.418 363.073 437.318 360.557 422.392 360.557C407.466 360.557 395.367 363.073 395.367 366.178C395.367 369.282 407.466 371.799 422.392 371.799Z" fill="#FBD56F"/>
<path d="M402.995 353.472L400.427 352.153C400.427 352.153 399.225 356.778 399.618 360.075C399.657 360.409 399.806 360.724 400.045 360.978C400.284 361.232 400.602 361.412 400.955 361.493C406.864 362.847 435.023 368.615 454.388 360.491C454.668 360.373 454.911 360.189 455.091 359.958C455.272 359.727 455.384 359.457 455.417 359.173C455.654 357.148 454.814 352.967 454.478 352.153C453.756 350.4 402.995 353.472 402.995 353.472Z" fill="#FBD56F"/>
<path opacity="0.1" d="M402.995 353.472L400.427 352.153C400.427 352.153 399.225 356.778 399.618 360.075C399.657 360.409 399.806 360.724 400.045 360.978C400.284 361.232 400.602 361.412 400.955 361.493C406.864 362.847 435.023 368.615 454.388 360.491C454.668 360.373 454.911 360.189 455.091 359.958C455.272 359.727 455.384 359.457 455.417 359.173C455.654 357.148 454.814 352.967 454.478 352.153C453.756 350.4 402.995 353.472 402.995 353.472Z" fill="black"/>
<path d="M427.452 357.774C442.378 357.774 454.478 355.257 454.478 352.153C454.478 349.048 442.378 346.532 427.452 346.532C412.526 346.532 400.427 349.048 400.427 352.153C400.427 355.257 412.526 357.774 427.452 357.774Z" fill="#FBD56F"/>
<path d="M448.617 428.332L446.048 427.013C446.048 427.013 444.847 431.639 445.24 434.935C445.278 435.269 445.427 435.584 445.667 435.838C445.906 436.092 446.224 436.272 446.577 436.353C452.485 437.707 480.645 443.475 500.009 435.351C500.29 435.233 500.533 435.049 500.713 434.818C500.894 434.587 501.006 434.317 501.039 434.033C501.276 432.008 500.435 427.827 500.1 427.013C499.377 425.26 448.617 428.332 448.617 428.332Z" fill="#FBD56F"/>
<path opacity="0.1" d="M448.617 428.332L446.048 427.013C446.048 427.013 444.847 431.639 445.24 434.935C445.278 435.269 445.427 435.584 445.667 435.838C445.906 436.092 446.224 436.272 446.577 436.353C452.485 437.707 480.645 443.475 500.009 435.351C500.29 435.233 500.533 435.049 500.713 434.818C500.894 434.587 501.006 434.317 501.039 434.033C501.276 432.008 500.435 427.827 500.1 427.013C499.377 425.26 448.617 428.332 448.617 428.332Z" fill="black"/>
<path d="M473.074 432.634C488 432.634 500.1 430.117 500.1 427.013C500.1 423.908 488 421.392 473.074 421.392C458.148 421.392 446.048 423.908 446.048 427.013C446.048 430.117 458.148 432.634 473.074 432.634Z" fill="#FBD56F"/>
<path d="M457.745 417.432L455.176 416.113C455.176 416.113 453.975 420.738 454.368 424.035C454.406 424.369 454.555 424.684 454.795 424.938C455.034 425.192 455.352 425.372 455.705 425.453C461.613 426.807 489.773 432.575 509.138 424.451C509.418 424.333 509.661 424.149 509.841 423.918C510.022 423.687 510.134 423.417 510.167 423.133C510.404 421.107 509.563 416.927 509.228 416.113C508.505 414.36 457.745 417.432 457.745 417.432Z" fill="#FBD56F"/>
<path opacity="0.1" d="M457.745 417.432L455.176 416.113C455.176 416.113 453.975 420.738 454.368 424.035C454.406 424.369 454.555 424.684 454.795 424.938C455.034 425.192 455.352 425.372 455.705 425.453C461.613 426.807 489.773 432.575 509.138 424.451C509.418 424.333 509.661 424.149 509.841 423.918C510.022 423.687 510.134 423.417 510.167 423.133C510.404 421.107 509.563 416.927 509.228 416.113C508.505 414.36 457.745 417.432 457.745 417.432Z" fill="black"/>
<path d="M482.202 421.734C497.128 421.734 509.228 419.217 509.228 416.113C509.228 413.008 497.128 410.492 482.202 410.492C467.276 410.492 455.176 413.008 455.176 416.113C455.176 419.217 467.276 421.734 482.202 421.734Z" fill="#FBD56F"/>
<path d="M447.636 406.085L445.068 404.766C445.068 404.766 443.866 409.392 444.259 412.688C444.298 413.022 444.447 413.337 444.686 413.591C444.925 413.845 445.243 414.025 445.596 414.106C451.505 415.46 479.664 421.228 499.029 413.104C499.31 412.986 499.552 412.802 499.733 412.571C499.913 412.34 500.025 412.07 500.058 411.786C500.295 409.761 499.455 405.58 499.119 404.766C498.397 403.013 447.636 406.085 447.636 406.085Z" fill="#FBD56F"/>
<path opacity="0.1" d="M447.636 406.085L445.068 404.766C445.068 404.766 443.866 409.392 444.259 412.688C444.298 413.022 444.447 413.337 444.686 413.591C444.925 413.845 445.243 414.025 445.596 414.106C451.505 415.46 479.664 421.228 499.029 413.104C499.31 412.986 499.552 412.802 499.733 412.571C499.913 412.34 500.025 412.07 500.058 411.786C500.295 409.761 499.455 405.58 499.119 404.766C498.397 403.013 447.636 406.085 447.636 406.085Z" fill="black"/>
<path d="M472.093 410.387C487.019 410.387 499.119 407.87 499.119 404.766C499.119 401.661 487.019 399.145 472.093 399.145C457.167 399.145 445.068 401.661 445.068 404.766C445.068 407.87 457.167 410.387 472.093 410.387Z" fill="#FBD56F"/>
<path d="M470.377 396.979L467.809 395.66C467.809 395.66 466.607 400.286 467 403.582C467.039 403.916 467.188 404.231 467.427 404.485C467.666 404.739 467.984 404.919 468.337 405C474.246 406.354 502.405 412.122 521.77 403.998C522.051 403.88 522.293 403.696 522.474 403.465C522.654 403.234 522.766 402.964 522.799 402.68C523.036 400.655 522.196 396.474 521.86 395.66C521.138 393.907 470.377 396.979 470.377 396.979Z" fill="#FBD56F"/>
<path opacity="0.1" d="M470.377 396.979L467.809 395.66C467.809 395.66 466.607 400.286 467 403.582C467.039 403.916 467.188 404.231 467.427 404.485C467.666 404.739 467.984 404.919 468.337 405C474.246 406.354 502.405 412.122 521.77 403.998C522.051 403.88 522.293 403.696 522.474 403.465C522.654 403.234 522.766 402.964 522.799 402.68C523.036 400.655 522.196 396.474 521.86 395.66C521.138 393.907 470.377 396.979 470.377 396.979Z" fill="black"/>
<path d="M494.834 401.281C509.76 401.281 521.86 398.764 521.86 395.66C521.86 392.555 509.76 390.039 494.834 390.039C479.908 390.039 467.809 392.555 467.809 395.66C467.809 398.764 479.908 401.281 494.834 401.281Z" fill="#FBD56F"/>
<path d="M455.012 390.859L452.444 389.539C452.444 389.539 451.243 394.165 451.635 397.461C451.674 397.796 451.823 398.111 452.062 398.365C452.301 398.618 452.619 398.798 452.973 398.88C458.881 400.234 487.041 406.002 506.405 397.878C506.686 397.759 506.928 397.576 507.109 397.345C507.289 397.114 507.401 396.843 507.434 396.56C507.672 394.534 506.831 390.354 506.495 389.539C505.773 387.787 455.012 390.859 455.012 390.859Z" fill="#FBD56F"/>
<path opacity="0.1" d="M455.012 390.859L452.444 389.539C452.444 389.539 451.243 394.165 451.635 397.461C451.674 397.796 451.823 398.111 452.062 398.365C452.301 398.618 452.619 398.798 452.973 398.88C458.881 400.234 487.041 406.002 506.405 397.878C506.686 397.759 506.928 397.576 507.109 397.345C507.289 397.114 507.401 396.843 507.434 396.56C507.672 394.534 506.831 390.354 506.495 389.539C505.773 387.787 455.012 390.859 455.012 390.859Z" fill="black"/>
<path d="M479.469 395.161C494.395 395.161 506.495 392.644 506.495 389.539C506.495 386.435 494.395 383.918 479.469 383.918C464.544 383.918 452.444 386.435 452.444 389.539C452.444 392.644 464.544 395.161 479.469 395.161Z" fill="#FBD56F"/>
<path d="M465.27 379.043L462.702 377.724C462.702 377.724 461.501 382.349 461.893 385.646C461.932 385.98 462.081 386.295 462.32 386.549C462.56 386.803 462.877 386.983 463.231 387.064C469.139 388.418 497.299 394.186 516.663 386.062C516.944 385.944 517.186 385.76 517.367 385.529C517.547 385.298 517.66 385.028 517.692 384.744C517.93 382.719 517.089 378.538 516.753 377.724C516.031 375.971 465.27 379.043 465.27 379.043Z" fill="#FBD56F"/>
<path opacity="0.1" d="M465.27 379.043L462.702 377.724C462.702 377.724 461.501 382.349 461.893 385.646C461.932 385.98 462.081 386.295 462.32 386.549C462.56 386.803 462.877 386.983 463.231 387.064C469.139 388.418 497.299 394.186 516.663 386.062C516.944 385.944 517.186 385.76 517.367 385.529C517.547 385.298 517.66 385.028 517.692 384.744C517.93 382.719 517.089 378.538 516.753 377.724C516.031 375.971 465.27 379.043 465.27 379.043Z" fill="black"/>
<path d="M489.728 383.345C504.654 383.345 516.753 380.828 516.753 377.724C516.753 374.619 504.654 372.103 489.728 372.103C474.802 372.103 462.702 374.619 462.702 377.724C462.702 380.828 474.802 383.345 489.728 383.345Z" fill="#FBD56F"/>
<path d="M470.33 365.018L467.762 363.699C467.762 363.699 466.561 368.325 466.953 371.621C466.992 371.955 467.141 372.271 467.38 372.524C467.62 372.778 467.937 372.958 468.291 373.039C474.199 374.393 502.359 380.161 521.723 372.037C522.004 371.919 522.247 371.735 522.427 371.504C522.608 371.273 522.72 371.003 522.752 370.72C522.99 368.694 522.149 364.513 521.813 363.699C521.091 361.946 470.33 365.018 470.33 365.018Z" fill="#FBD56F"/>
<path opacity="0.1" d="M470.33 365.018L467.762 363.699C467.762 363.699 466.561 368.325 466.953 371.621C466.992 371.955 467.141 372.271 467.38 372.524C467.62 372.778 467.937 372.958 468.291 373.039C474.199 374.393 502.359 380.161 521.723 372.037C522.004 371.919 522.247 371.735 522.427 371.504C522.608 371.273 522.72 371.003 522.752 370.72C522.99 368.694 522.149 364.513 521.813 363.699C521.091 361.946 470.33 365.018 470.33 365.018Z" fill="black"/>
<path d="M494.788 369.32C509.714 369.32 521.813 366.803 521.813 363.699C521.813 360.595 509.714 358.078 494.788 358.078C479.862 358.078 467.762 360.595 467.762 363.699C467.762 366.803 479.862 369.32 494.788 369.32Z" fill="#FBD56F"/>
<path d="M633.225 461.416C629.463 461.293 629.329 459.948 624.492 457.624C621.762 456.312 617.616 452.503 614.526 449.437C614.278 449.192 614.038 448.952 613.807 448.718C614.624 448.701 615.087 448.693 615.087 448.693C615.087 448.693 613.878 438.907 614.953 436.583C616.028 434.258 615.222 420.435 615.222 420.435C615.222 420.435 615.893 409.915 614.684 407.468C613.475 405.022 615.087 389.363 615.087 389.363C615.087 389.363 616.162 380.066 616.431 361.105C616.7 342.144 604.608 341.532 604.608 341.532C604.608 341.532 602.995 341.417 600.548 341.202C600.312 341.182 600.064 341.159 599.814 341.137C601.399 338.075 602.324 335.783 602.324 335.783C602.324 335.783 600.308 318.045 599.771 314.987C599.233 311.929 596.009 299.329 596.009 299.329C596.009 299.329 593.725 293.946 592.381 290.154C591.038 286.362 587.007 281.958 587.007 281.958C587.007 281.958 579.752 268.746 577.737 266.789C576.802 265.881 575.491 264.736 574.354 263.77C574.149 263.595 573.953 263.43 573.763 263.27C574.067 261.891 574.228 260.489 574.244 259.082C574.244 259.082 566.72 252.232 566.183 250.519C565.645 248.806 558.524 242.445 558.524 242.445C558.524 242.445 554.494 235.595 549.926 235.472C547.767 235.359 545.603 235.42 543.456 235.653C544.394 232.449 545.503 229.092 546.5 226.212C546.611 225.891 546.72 225.578 546.827 225.27C550.478 222.992 553.342 219.795 555.081 216.058C555.176 215.86 555.262 215.659 555.349 215.458C555.397 215.459 555.445 215.467 555.493 215.466C555.683 215.464 555.872 215.448 556.059 215.419C557.562 215.18 558.835 213.613 558.142 212.377C558.187 212.447 558.251 212.504 558.328 212.543C558.405 212.582 558.492 212.602 558.58 212.599C559.081 212.584 559.693 211.915 559.81 211.326C559.831 211.224 559.842 211.121 559.859 211.018C559.88 210.89 559.903 210.763 559.919 210.634C559.935 210.514 559.945 210.393 559.956 210.272C559.967 210.147 559.978 210.022 559.984 209.897C559.991 209.78 559.995 209.663 559.997 209.546C560 209.411 559.999 209.277 559.996 209.142C559.994 209.034 559.993 208.926 559.987 208.818C559.979 208.655 559.964 208.491 559.948 208.327C559.941 208.26 559.939 208.193 559.931 208.126L559.93 208.136C559.851 207.467 559.707 206.807 559.497 206.163C558.755 203.889 557.197 201.634 557.797 199.326C557.804 199.301 557.816 199.278 557.823 199.253L557.824 199.258C558.324 197.466 560.004 196.165 561.032 194.564C561.13 194.412 561.216 194.254 561.301 194.096C561.316 194.067 561.335 194.04 561.35 194.011C561.412 193.892 561.464 193.769 561.518 193.648C561.553 193.57 561.592 193.493 561.624 193.414C561.667 193.307 561.703 193.198 561.741 193.09C561.775 192.992 561.812 192.894 561.842 192.794C561.871 192.698 561.894 192.601 561.919 192.504C561.949 192.387 561.979 192.271 562.003 192.153C562.021 192.068 562.034 191.983 562.048 191.898C562.071 191.764 562.092 191.631 562.107 191.496C562.115 191.423 562.122 191.35 562.128 191.277C562.141 191.127 562.15 190.977 562.154 190.826C562.155 190.765 562.156 190.705 562.156 190.645C562.157 190.48 562.152 190.315 562.143 190.15C562.14 190.1 562.137 190.051 562.133 190.002C562.119 189.826 562.1 189.651 562.075 189.476C562.071 189.451 562.07 189.425 562.066 189.4L562.065 189.407C561.837 187.87 561.173 186.415 560.14 185.19C558.964 183.898 557.478 182.877 555.799 182.207C554.12 181.537 552.296 181.237 550.47 181.331C549.46 181.436 548.442 181.453 547.429 181.383C545.742 181.154 544.316 180.166 542.971 179.21C539.22 176.544 535.469 173.878 531.718 171.212C530.463 170.205 529.022 169.415 527.464 168.878C525.874 168.429 523.967 168.584 522.79 169.656C520.683 171.575 522.022 174.877 521.176 177.478C520.444 179.732 518.085 181.259 515.643 182.02C513.202 182.781 510.589 182.948 508.08 183.499C507.333 183.611 506.634 183.907 506.056 184.357C505.406 185.085 505.091 186.018 505.176 186.958C505.161 189.262 505.761 191.534 506.923 193.573C507.398 194.404 507.973 195.243 508.477 196.094C508.519 196.165 508.559 196.235 508.6 196.306C508.656 196.403 508.713 196.501 508.767 196.599C508.854 196.758 508.937 196.918 509.016 197.077C509.051 197.147 509.081 197.216 509.113 197.285C509.166 197.398 509.216 197.512 509.264 197.626C509.294 197.698 509.323 197.771 509.351 197.843C509.402 197.977 509.447 198.111 509.488 198.246C509.757 199.037 509.782 199.881 509.561 200.685C509.174 202 508.062 203.013 507.081 204.04C506.28 204.843 505.71 205.818 505.423 206.876L505.418 206.899C505.363 207.145 505.353 207.398 505.388 207.647C505.392 207.678 505.396 207.71 505.403 207.739C505.416 207.795 505.432 207.85 505.453 207.903C505.468 207.942 505.486 207.98 505.505 208.017C505.526 208.061 505.549 208.103 505.575 208.144C505.623 208.212 505.681 208.275 505.746 208.33C505.776 208.353 505.808 208.374 505.84 208.394C505.894 208.432 505.952 208.464 506.013 208.492C506.05 208.509 506.087 208.525 506.128 208.539C506.217 208.569 506.309 208.593 506.403 208.608C506.429 208.613 506.452 208.62 506.479 208.624C506.622 208.641 506.767 208.647 506.911 208.641C506.953 208.639 506.998 208.635 507.042 208.632C507.18 208.622 507.318 208.606 507.455 208.584C507.505 208.576 507.554 208.568 507.606 208.558C507.804 208.521 508.012 208.474 508.24 208.409C508.995 208.198 509.729 207.931 510.435 207.608C510.434 207.682 510.429 207.756 510.429 207.831C510.429 207.959 510.429 208.094 510.443 208.222C510.48 210.621 510.971 212.996 511.894 215.239C513.334 218.735 515.751 221.816 518.9 224.171C518.861 224.383 518.818 224.595 518.772 224.808C518.124 227.741 516.77 230.684 515.934 230.457C515.117 230.289 514.281 230.204 513.443 230.205C513.19 230.198 512.944 230.195 512.711 230.193L512.71 230.193C511.951 230.112 511.185 230.112 510.426 230.193C510.087 230.214 509.747 230.171 509.426 230.065C507.255 229.434 504.948 229.315 502.714 229.718C498.068 230.596 491.001 232.204 489.064 234.127C486.108 237.063 481.809 239.876 476.972 252.109C476.972 252.109 474.554 259.571 472.673 260.55C473.087 260.352 473.513 260.175 473.949 260.021C473.699 260.425 473.355 260.773 472.941 261.039C473.623 260.718 474.33 260.446 475.057 260.225C473.589 268.195 475.763 290.993 475.763 290.993C475.763 290.993 474.016 294.925 476.3 297.249C477.658 298.63 478.395 300.784 478.772 302.309C478.666 302.461 478.556 302.62 478.442 302.783V302.786C477.233 304.515 475.615 306.771 474.554 308.014C472.673 310.216 473.21 317.189 473.21 317.189C473.21 317.189 472.807 320.492 471.463 321.715C470.12 322.938 470.389 327.465 470.389 327.465L466.895 339.331C466.895 339.331 463.671 342.022 463.671 343.245C463.671 344.468 461.118 347.894 461.118 347.894C461.118 347.894 457.222 353.765 461.118 352.909C462.538 352.525 463.871 351.907 465.052 351.084L465.05 351.172C465.044 351.387 465.04 351.606 465.036 351.828C464.926 358.223 465.681 367.222 470.792 367.222C478.718 367.222 499.14 375.907 499.14 375.907C503.305 378.843 508.948 377.864 508.948 377.864C508.948 377.864 499.006 387.039 499.274 390.831C499.543 394.624 493.632 400.862 493.632 400.862L475.36 433.769C475.462 436.062 475.902 438.331 476.669 440.514C476.583 440.584 476.492 440.651 476.408 440.722C469.386 446.641 468.776 458.358 468.776 458.358L467.164 464.352L491.616 474.26C491.616 474.26 523.324 474.872 528.832 473.526C534.341 472.181 533.132 466.554 525.877 465.453C518.621 464.352 516.875 461.416 514.457 460.07C512.825 459.162 507.032 453.295 503.437 449.577C503.382 449.52 503.332 449.468 503.278 449.412L504.111 445.146C505.724 444.412 508.142 437.072 508.142 437.072C508.142 437.072 508.142 434.136 509.754 433.28C511.366 432.423 514.725 423.616 514.725 423.616C514.725 423.616 521.98 412.484 521.577 411.016C521.174 409.548 526.817 402.086 526.817 402.086C526.817 402.086 536.356 393.523 535.953 391.993C535.55 390.464 543.611 382.635 543.611 382.635C546.524 380.583 548.952 378.004 550.745 375.056C551.471 374.948 552.25 374.833 553.072 374.706C563.622 373.111 581.152 370.226 583.111 369.424C585.798 368.323 585.261 373.216 584.186 377.375C583.111 381.534 582.305 401.474 583.514 404.043C584.723 406.612 584.186 410.771 584.186 410.771L582.574 433.158L583.649 437.928C583.649 437.928 580.021 440.62 581.499 442.21C582.977 443.8 581.633 450.651 581.633 450.651C581.76 450.607 581.911 450.565 582.079 450.523C581.95 450.792 581.827 451.068 581.716 451.358C579.634 456.836 580.827 465.82 580.827 465.82V472.915C580.827 472.915 618.043 473.526 626.239 473.526C634.434 473.526 645.72 469.856 646.392 466.921C647.063 463.985 636.987 461.538 633.225 461.416ZM527.375 334.065L524.937 334.254C525.745 334.146 526.559 334.082 527.375 334.065V334.065ZM542.238 240.168C542.58 238.753 542.994 237.231 543.451 235.67L542.238 240.168ZM546.836 337.495C544.511 338.344 541.923 338.347 539.597 337.503L539.581 337.495C539.581 337.495 539.715 328.932 540.79 325.385C541.865 321.837 543.343 315.354 543.343 315.354C543.343 315.354 544.552 306.424 545.761 302.387C546.97 298.35 551.672 275.841 554.091 274.373C556.509 272.905 557.853 275.474 557.853 275.474C557.853 275.474 558.214 275.467 558.819 275.406C558.933 275.64 559.061 275.89 559.204 276.154C562.071 281.5 570.482 292.478 570.482 292.478C572.977 293.898 575.09 295.822 576.662 298.105C578.946 301.653 579.618 309.971 579.618 309.971C579.618 309.971 584.723 328.443 587.142 331.012C588.351 332.296 587.813 333.062 586.975 333.505C585.262 334.37 583.806 335.611 582.735 337.119C582.391 337.623 582.026 338.176 581.657 338.766C580.732 338.568 579.904 338.363 579.215 338.149C572.631 336.108 550.463 336.028 546.836 337.495V337.495Z" fill="url(#paint0_linear)"/>
<path d="M579.946 465.891V472.927C579.946 472.927 616.362 473.534 624.381 473.534C632.401 473.534 643.444 469.894 644.101 466.983C644.759 464.072 634.899 461.646 631.218 461.524C627.537 461.403 627.405 460.069 622.672 457.764C620.001 456.463 615.944 452.686 612.92 449.646C610.588 447.3 608.868 445.391 608.868 445.391C608.868 445.391 589.28 445.027 583.627 447.938C582.325 448.61 581.426 449.925 580.816 451.551C578.778 456.983 579.946 465.891 579.946 465.891Z" fill="black"/>
<path opacity="0.1" d="M580.816 451.551C584.923 450.233 608.968 449.721 612.92 449.646C610.588 447.3 608.868 445.391 608.868 445.391C608.868 445.391 589.28 445.027 583.627 447.938C582.325 448.61 581.426 449.925 580.816 451.551Z" fill="black"/>
<path d="M475.166 339.369C475.166 339.369 475.926 339.794 477.291 340.553C477.538 340.689 477.804 340.839 478.087 340.997C478.953 341.48 479.991 342.055 481.177 342.715C497.7 351.902 542.772 376.809 545.238 376.61C545.885 376.559 547.828 376.29 550.51 375.887C551.22 375.78 551.983 375.666 552.787 375.54C563.11 373.958 580.264 371.098 582.181 370.302C584.81 369.21 584.284 374.063 583.232 378.187C582.181 382.311 581.392 402.084 582.575 404.632C583.758 407.179 583.232 411.304 583.232 411.304L581.655 433.503L582.706 438.234C582.706 438.234 579.157 440.902 580.603 442.479C582.049 444.056 580.734 450.849 580.734 450.849C584.941 449.394 613.47 448.908 613.47 448.908C613.47 448.908 612.287 439.204 613.338 436.899C614.39 434.594 613.601 420.887 613.601 420.887C613.601 420.887 614.258 410.454 613.075 408.028C611.892 405.602 613.47 390.075 613.47 390.075C613.47 390.075 614.521 380.856 614.784 362.053C615.047 343.251 603.215 342.644 603.215 342.644C603.215 342.644 601.638 342.53 599.242 342.317C594.557 341.902 586.748 341.109 581.531 340.063C580.462 339.859 579.406 339.601 578.368 339.289C571.926 337.266 550.234 337.186 546.684 338.641C544.412 339.483 541.876 339.486 539.601 338.649L539.585 338.641L536.824 334.517L510.455 336.591L507.66 336.812L481.7 338.855L479.915 338.995L475.166 339.369Z" fill="#C70000"/>
<path opacity="0.1" d="M580.866 357.977C588.525 361.423 595.835 349.209 599.242 342.317C594.557 341.902 586.748 341.109 581.531 340.063C578.1 345.376 573.522 354.675 580.866 357.977Z" fill="black"/>
<path d="M557.859 275.441C558.019 276.275 558.333 277.077 558.787 277.814C561.593 283.115 569.823 294.001 569.823 294.001C572.271 295.414 574.338 297.322 575.87 299.581C578.105 303.099 578.762 311.347 578.762 311.347C578.762 311.347 583.758 329.665 586.125 332.212C587.308 333.486 586.782 334.245 585.961 334.684C584.281 335.546 582.856 336.777 581.812 338.268C578.365 343.382 572.862 353.526 580.603 357.007C591.12 361.738 600.98 336.943 600.98 336.943C600.98 336.943 599.008 319.354 598.482 316.321C597.957 313.288 594.801 300.794 594.801 300.794C594.801 300.794 592.566 295.456 591.252 291.696C589.937 287.935 585.993 283.568 585.993 283.568C585.993 283.568 578.894 270.467 576.922 268.526C576.007 267.626 574.724 266.491 573.611 265.533C572.326 264.424 571.269 263.553 571.269 263.553C571.269 263.553 557.728 272.529 557.859 275.441Z" fill="#8D3B25"/>
<path d="M468.724 464.436L492.651 474.262C492.651 474.262 523.678 474.868 529.068 473.534C534.458 472.199 533.275 466.619 526.176 465.527C519.076 464.436 517.367 461.524 515.001 460.19C513.405 459.29 507.736 453.472 504.218 449.784C502.525 448.008 501.328 446.725 501.328 446.725C501.328 446.725 496.727 435.444 483.975 437.991C481.647 438.455 479.502 439.497 477.769 441.004C470.899 446.873 470.302 458.492 470.302 458.492L468.724 464.436Z" fill="black"/>
<path opacity="0.1" d="M478.087 340.997C478.953 341.48 479.991 342.055 481.177 342.715C497.7 351.902 542.772 376.809 545.238 376.61C545.885 376.559 547.828 376.29 550.51 375.887C551.22 375.78 551.983 375.666 552.787 375.54C552.819 375.494 552.848 375.448 552.877 375.402C554.2 373.268 555.213 370.982 555.887 368.604C558.648 358.899 544.975 351.5 544.975 351.5L542.083 349.425C538.796 344.318 515.132 339.49 515.132 339.49L512.082 337.6L510.455 336.591L510.026 336.327L506.324 334.032L487.787 335.245L482.281 338.51L481.7 338.855L479.657 340.068L478.087 340.997Z" fill="black"/>
<path opacity="0.1" d="M477.769 441.004C482.802 457.065 503.826 451.82 503.826 451.82L504.218 449.784C502.525 448.008 501.328 446.725 501.328 446.725C501.328 446.725 496.727 435.444 483.975 437.991C481.647 438.455 479.502 439.497 477.769 441.004V441.004Z" fill="black"/>
<path d="M472.274 368.119C480.031 368.119 500.014 376.731 500.014 376.731C504.089 379.643 509.611 378.672 509.611 378.672C509.611 378.672 499.882 387.77 500.145 391.531C500.408 395.291 494.623 401.478 494.623 401.478L476.744 434.109C478.059 457.279 503.826 450.849 503.826 450.849L504.878 445.391C506.455 444.663 508.822 437.384 508.822 437.384C508.822 437.384 508.822 434.473 510.399 433.624C511.977 432.775 515.264 424.041 515.264 424.041C515.264 424.041 522.363 413.002 521.969 411.546C521.574 410.091 527.096 402.691 527.096 402.691C527.096 402.691 536.43 394.199 536.036 392.683C535.641 391.167 543.529 383.403 543.529 383.403C546.386 381.362 548.762 378.805 550.51 375.887C551.834 373.753 552.846 371.468 553.521 369.089C555.745 361.275 547.31 354.952 543.942 352.79C543.127 352.266 542.609 351.985 542.609 351.985L539.717 349.911C538.223 347.586 532.512 345.323 526.73 343.544C522.56 342.261 518.351 341.23 515.661 340.611C513.881 340.204 512.766 339.976 512.766 339.976L509.716 338.086L508.643 337.421L507.66 336.812L503.958 334.517L495.709 335.055L485.421 335.73L479.915 338.995L477.291 340.553L467.015 346.647C467.015 346.647 466.744 348.981 466.658 352.114C466.652 352.356 466.647 352.601 466.642 352.853C466.534 359.195 467.273 368.119 472.274 368.119Z" fill="#C70000"/>
<path d="M511.846 232.256L514.606 241.354C514.606 241.354 519.471 257.002 519.997 258.094C520.522 259.186 533.275 270.225 533.801 270.467C534.326 270.71 541.271 274.349 541.271 274.349C541.271 274.349 541.82 254.334 541.294 248.511C541.249 247.232 541.363 245.952 541.636 244.697C542.475 240.133 544.597 233.442 546.356 228.289C547.828 223.971 549.051 220.732 549.051 220.732C549.051 220.732 518.287 219.519 519.339 222.309C519.736 223.364 519.607 225.128 519.223 226.897C518.59 229.806 517.265 232.724 516.447 232.499C515.647 232.332 514.83 232.248 514.009 232.249C512.874 232.217 511.846 232.256 511.846 232.256Z" fill="#8D3B25"/>
<path opacity="0.1" d="M519.224 226.897C522.982 229.791 527.652 231.49 532.54 231.741C537.427 231.992 542.273 230.781 546.356 228.289C547.828 223.971 549.051 220.732 549.051 220.732C549.051 220.732 518.288 219.519 519.339 222.309C519.736 223.364 519.607 225.128 519.224 226.897Z" fill="black"/>
<path d="M556.547 210.062C556.548 212.287 556.165 214.499 555.41 216.613C555.22 217.159 555.001 217.695 554.752 218.221C552.981 222.091 549.992 225.381 546.172 227.667C542.352 229.952 537.876 231.127 533.324 231.04C528.772 230.952 524.353 229.606 520.64 227.176C516.926 224.745 514.088 221.343 512.493 217.408C511.59 215.181 511.11 212.827 511.073 210.45C511.06 210.322 511.06 210.189 511.06 210.062C511.06 204.496 513.456 199.158 517.721 195.222C521.987 191.287 527.772 189.076 533.804 189.076C539.836 189.076 545.621 191.287 549.886 195.222C554.151 199.158 556.547 204.496 556.547 210.062H556.547Z" fill="#8D3B25"/>
<path opacity="0.1" d="M511.846 232.256L514.606 241.354C514.606 241.354 519.471 257.002 519.997 258.094C520.522 259.186 533.275 270.225 533.801 270.467C534.326 270.71 541.271 274.349 541.271 274.349C541.271 274.349 541.82 254.334 541.294 248.511C541.249 247.232 541.363 245.952 541.636 244.697L539.848 251.422L539.98 264.887L541.031 265.615L538.665 268.89V266.464C538.665 266.464 530.251 258.943 528.936 255.789C527.622 252.635 522.889 246.924 522.889 246.924C522.889 246.924 517.499 238.564 517.367 237.108C517.265 235.973 515.001 233.348 514.01 232.249C512.874 232.217 511.846 232.256 511.846 232.256Z" fill="black"/>
<path opacity="0.1" d="M557.859 275.441C558.019 276.275 558.333 277.077 558.787 277.814C561.661 277.542 571.455 275.856 573.612 265.533C572.326 264.424 571.269 263.553 571.269 263.553C571.269 263.553 557.728 272.529 557.859 275.441Z" fill="black"/>
<path opacity="0.1" d="M466.642 352.854C469.295 351.121 471.819 348.758 473.326 348.103C475.561 347.133 478.979 343.979 478.979 343.979C478.979 343.979 479.847 343.435 481.177 342.715C483.617 341.395 487.616 339.483 490.679 339.248C493.424 339.037 502.543 338.498 509.716 338.086C514.906 337.785 519.076 337.55 519.076 337.55C519.076 337.55 527.622 334.759 531.303 336.579C533.939 337.798 536.718 338.734 539.585 339.369C539.585 339.369 539.588 339.105 539.601 338.649L539.585 338.641L536.824 334.517L507.66 336.812L503.958 334.517L485.421 335.73L479.915 338.995L475.166 339.369C475.166 339.369 475.926 339.794 477.291 340.553L467.015 346.647C467.015 346.647 466.7 349.357 466.642 352.854Z" fill="black"/>
<path d="M462.808 353.926C464.2 353.544 465.505 352.931 466.658 352.116V352.114C469.305 350.384 471.822 348.028 473.326 347.375C475.561 346.405 478.979 343.251 478.979 343.251C478.979 343.251 485.947 338.884 490.679 338.52C491.97 338.421 494.668 338.248 497.91 338.054C501.228 337.85 505.112 337.622 508.643 337.421C510.678 337.302 512.595 337.19 514.215 337.098C517.117 336.933 519.076 336.822 519.076 336.822C519.076 336.822 527.622 334.032 531.303 335.851C533.939 337.07 536.718 338.006 539.585 338.641C539.585 338.641 539.717 330.15 540.768 326.632C541.82 323.114 543.266 316.685 543.266 316.685C543.266 316.685 544.449 307.83 545.633 303.826C546.816 299.823 551.417 277.503 553.784 276.047C556.15 274.592 557.465 277.139 557.465 277.139C557.465 277.139 573.241 276.896 573.504 260.884C573.504 260.884 566.142 254.091 565.616 252.393C565.09 250.694 558.122 244.386 558.122 244.386C558.122 244.386 554.178 237.593 549.708 237.472C547.596 237.36 545.477 237.42 543.377 237.652L539.585 251.907L539.717 265.372L540.768 266.1L538.402 269.376V266.949C538.402 266.949 529.988 259.428 528.673 256.274C527.359 253.121 522.626 247.409 522.626 247.409C522.626 247.409 517.236 239.049 517.104 237.593C516.973 236.138 513.292 232.236 513.292 232.236C512.549 232.156 511.799 232.156 511.057 232.236C510.725 232.258 510.392 232.215 510.079 232.11C507.956 231.484 505.696 231.366 503.511 231.766C498.965 232.637 492.049 234.231 490.154 236.138C487.261 239.049 483.054 241.839 478.322 253.97L503.826 262.461L501.644 266.289L481.345 301.886C481.345 301.886 480.672 302.897 479.76 304.219V304.222C478.577 305.937 476.994 308.174 475.955 309.406C474.115 311.59 474.64 318.504 474.64 318.504C474.64 318.504 474.246 321.78 472.931 322.993C471.617 324.206 471.88 328.694 471.88 328.694L468.461 340.461C468.461 340.461 465.306 343.13 465.306 344.343C465.306 345.556 462.808 348.952 462.808 348.952C462.808 348.952 458.996 354.775 462.808 353.926Z" fill="#FFF4F4"/>
<path opacity="0.1" d="M597.431 362.66C597.431 362.66 589.148 365.207 586.913 368.846C584.678 372.486 597.431 362.66 597.431 362.66Z" fill="black"/>
<path opacity="0.1" d="M593.224 354.654C592.961 355.018 581.88 365.277 582.575 367.755C583.27 370.232 593.224 354.654 593.224 354.654Z" fill="black"/>
<path opacity="0.1" d="M532.354 361.932C532.354 361.932 519.997 367.31 518.945 369.655C517.893 372 532.354 361.932 532.354 361.932Z" fill="black"/>
<path opacity="0.1" d="M531.566 368.846C531.566 368.846 520.413 373.213 518.89 374.305C517.367 375.397 531.566 368.846 531.566 368.846Z" fill="black"/>
<path opacity="0.1" d="M526.438 378.187C526.438 378.187 521.499 381.584 518.776 378.915C516.053 376.246 526.438 378.187 526.438 378.187Z" fill="black"/>
<path opacity="0.1" d="M544.977 289.634C544.712 289.998 528.279 317.291 523.941 319.354C519.602 321.416 544.977 289.634 544.977 289.634Z" fill="black"/>
<path opacity="0.1" d="M544.187 299.945C544.187 300.551 528.148 332.212 525.518 332.576C522.889 332.94 544.187 299.945 544.187 299.945Z" fill="black"/>
<path opacity="0.1" d="M483.186 320.324C483.186 320.324 475.439 335.587 472.406 336.458C469.372 337.328 483.186 320.324 483.186 320.324Z" fill="black"/>
<path opacity="0.1" d="M481.871 313.531C481.871 313.531 479.201 318.868 477.578 318.868C475.955 318.868 481.871 313.531 481.871 313.531Z" fill="black"/>
<path opacity="0.1" d="M556.547 210.062C556.548 212.287 556.165 214.499 555.41 216.613C555.22 217.159 555.001 217.695 554.752 218.221C553.585 218.057 552.484 217.611 551.564 216.928C550.588 216.318 549.772 215.514 549.177 214.575C548.729 213.574 548.34 212.552 548.014 211.511C547.489 210.338 546.634 209.314 545.537 208.547C544.441 207.781 543.142 207.298 541.775 207.15C542.531 208.339 541.328 209.971 539.849 210.183C538.369 210.389 536.93 209.576 535.911 208.563C534.892 207.55 534.155 206.319 533.143 205.306C532.124 204.293 530.684 203.48 529.205 203.686C527.897 203.868 526.884 204.79 525.786 205.476C524.695 206.161 523.163 206.622 522.105 205.888C521.513 205.482 521.224 204.79 520.658 204.347C519.205 203.225 516.944 204.384 515.872 205.834C514.222 208.078 513.216 209.437 511.073 210.45C511.06 210.322 511.06 210.189 511.06 210.062C511.06 204.496 513.456 199.158 517.721 195.222C521.987 191.287 527.772 189.076 533.804 189.076C539.836 189.076 545.62 191.287 549.886 195.222C554.151 199.158 556.547 204.496 556.547 210.062Z" fill="black"/>
<path d="M515.874 205.227C516.944 203.776 519.204 202.616 520.661 203.744C521.227 204.181 521.515 204.874 522.105 205.283C523.162 206.018 524.695 205.557 525.788 204.869C526.881 204.181 527.896 203.263 529.204 203.08C530.684 202.872 532.126 203.686 533.142 204.7C534.158 205.713 534.894 206.943 535.91 207.957C536.927 208.971 538.369 209.784 539.848 209.575C541.328 209.366 542.534 207.733 541.773 206.543C543.14 206.692 544.438 207.174 545.535 207.941C546.631 208.708 547.486 209.731 548.011 210.904C548.338 211.944 548.727 212.967 549.175 213.967C549.771 214.906 550.588 215.71 551.565 216.319C552.771 217.135 554.233 217.823 555.707 217.586C557.181 217.35 558.428 215.792 557.743 214.565C558.214 215.224 559.225 214.305 559.378 213.528C559.711 211.823 559.607 210.069 559.074 208.408C558.347 206.153 556.823 203.917 557.411 201.628C557.876 199.816 559.554 198.514 560.573 196.906C562.379 194.056 561.9 190.217 559.703 187.611C558.561 186.334 557.11 185.322 555.466 184.657C553.822 183.992 552.032 183.693 550.24 183.784C549.253 183.888 548.256 183.905 547.265 183.835C545.615 183.609 544.219 182.628 542.903 181.681L531.891 173.749C530.666 172.753 529.256 171.969 527.729 171.436C526.173 170.99 524.307 171.144 523.155 172.207C521.094 174.11 522.404 177.384 521.576 179.963C520.86 182.198 518.552 183.712 516.162 184.467C513.773 185.222 511.216 185.387 508.761 185.934C508.029 186.045 507.344 186.339 506.781 186.785C506.144 187.51 505.836 188.434 505.92 189.364C505.905 191.646 506.491 193.897 507.63 195.923C508.905 198.186 510.926 200.512 510.211 202.976C509.832 204.28 508.743 205.284 507.784 206.303C505.703 208.512 505 211.775 508.916 210.635C512.688 209.537 513.746 208.114 515.874 205.227Z" fill="#601B08"/>
<g opacity="0.1">
<path opacity="0.1" d="M559.38 211.136C559.227 211.914 558.216 212.833 557.745 212.173C558.43 213.4 557.183 214.958 555.709 215.195C554.235 215.431 552.773 214.743 551.567 213.927C550.59 213.318 549.773 212.515 549.178 211.576C548.729 210.575 548.34 209.553 548.013 208.513C547.488 207.339 546.634 206.316 545.537 205.55C544.441 204.783 543.142 204.3 541.776 204.152C542.536 205.341 541.33 206.974 539.851 207.183C538.371 207.392 536.929 206.579 535.913 205.565C534.896 204.552 534.16 203.322 533.144 202.308C532.128 201.294 530.686 200.48 529.207 200.688C527.899 200.872 526.884 201.79 525.791 202.478C524.698 203.166 523.164 203.626 522.107 202.892C521.518 202.482 521.229 201.79 520.664 201.352C519.207 200.224 516.947 201.384 515.877 202.835C513.748 205.722 512.69 207.145 508.918 208.243C507.68 208.604 506.906 208.522 506.489 208.175C505.661 209.929 506.038 211.473 508.918 210.635C512.69 209.537 513.748 208.114 515.877 205.227C516.946 203.776 519.207 202.616 520.664 203.744C521.229 204.181 521.518 204.874 522.107 205.283C523.164 206.018 524.698 205.557 525.791 204.869C526.883 204.181 527.899 203.263 529.207 203.08C530.686 202.872 532.128 203.686 533.144 204.7C534.16 205.713 534.896 206.943 535.913 207.957C536.929 208.971 538.371 209.784 539.851 209.575C541.33 209.366 542.536 207.733 541.776 206.543C543.142 206.692 544.441 207.174 545.537 207.941C546.634 208.708 547.488 209.731 548.013 210.904C548.34 211.944 548.729 212.967 549.178 213.967C549.773 214.906 550.59 215.71 551.567 216.319C552.773 217.135 554.236 217.823 555.709 217.586C557.183 217.35 558.43 215.792 557.745 214.565C558.216 215.225 559.227 214.305 559.38 213.528C559.585 212.481 559.625 211.412 559.499 210.355C559.468 210.616 559.431 210.877 559.38 211.136Z" fill="black"/>
<path opacity="0.1" d="M510.179 200.676C510.189 200.645 510.204 200.616 510.213 200.584C510.928 198.121 508.907 195.795 507.632 193.532C506.738 191.936 506.183 190.197 505.998 188.408C505.948 188.725 505.923 189.044 505.923 189.364C505.907 191.646 506.493 193.897 507.632 195.923C508.504 197.47 509.723 199.047 510.179 200.676Z" fill="black"/>
<path opacity="0.1" d="M560.575 194.515C559.556 196.123 557.878 197.424 557.413 199.236C557.233 200.003 557.241 200.797 557.436 201.561C557.926 199.784 559.569 198.494 560.575 196.906C561.524 195.352 561.881 193.549 561.588 191.785C561.445 192.747 561.101 193.674 560.575 194.515V194.515Z" fill="black"/>
</g>
<path opacity="0.1" d="M479.76 304.219V304.222C479.935 304.891 480.069 305.569 480.162 306.253C480.162 306.253 490.548 328.694 491.863 330.029C492.267 330.439 493.793 332.457 495.709 335.055C496.403 335.994 497.148 337.011 497.91 338.054C501.886 343.498 506.324 349.68 506.324 349.68L516.053 357.565C516.053 357.565 537.216 359.127 543.942 352.79C543.127 352.266 542.609 351.985 542.609 351.985L539.717 349.911C538.223 347.586 532.512 345.323 526.73 343.544C521.403 343.581 517.046 343.979 517.046 343.979L515.661 340.611L514.215 337.098L506.86 319.232C506.86 319.232 502.117 296.669 500.539 295.578C498.962 294.486 499.356 291.089 499.356 291.089C499.356 291.089 502.248 281.506 501.197 280.172C500.145 278.837 502.906 269.012 502.906 269.012C502.631 268.052 502.206 267.135 501.644 266.289L481.345 301.886C481.345 301.886 480.672 302.897 479.76 304.219Z" fill="black"/>
<path d="M503.169 268.284C503.169 268.284 500.408 278.11 501.46 279.444C502.511 280.778 499.619 290.361 499.619 290.361C499.619 290.361 499.225 293.758 500.802 294.85C502.38 295.942 507.123 318.504 507.123 318.504L517.309 343.251C517.309 343.251 549.182 340.34 545.896 349.559C542.609 358.778 516.316 356.837 516.316 356.837L506.587 348.952C506.587 348.952 493.44 330.635 492.126 329.301C490.811 327.966 480.425 305.525 480.425 305.525C480.425 305.525 479.899 301.036 477.664 298.732C475.429 296.427 477.138 292.528 477.138 292.528C477.138 292.528 474.378 263.189 477.27 259.671C480.162 256.153 500.145 257.73 503.169 268.284Z" fill="#8D3B25"/>
<path opacity="0.1" d="M486.867 249.845L478.584 254.455C478.584 254.455 476.218 261.855 474.378 262.825C474.378 262.825 490.942 254.334 503.432 273.864C503.432 273.864 503.037 271.316 504.746 270.103C506.455 268.89 506.061 263.674 506.061 263.674C506.516 262.85 506.911 261.999 507.244 261.127C508.427 258.458 502.249 243.173 486.867 249.845Z" fill="black"/>
<path d="M486.604 249.36L478.321 253.97C478.321 253.97 475.955 261.369 474.115 262.34C474.115 262.34 490.679 253.848 503.169 273.379C503.169 273.379 502.774 270.831 504.483 269.618C506.192 268.405 505.798 263.189 505.798 263.189C506.253 262.365 506.648 261.514 506.981 260.641C508.165 257.973 501.986 242.688 486.604 249.36Z" fill="#FFF4F4"/>
<path d="M412.782 461.799C426.419 461.799 437.473 450.972 437.473 437.616C437.473 424.261 426.419 413.434 412.782 413.434C399.146 413.434 388.092 424.261 388.092 437.616C388.092 450.972 399.146 461.799 412.782 461.799Z" fill="#FBD56F"/>
<path opacity="0.1" d="M412.782 461.799C426.419 461.799 437.473 450.972 437.473 437.616C437.473 424.261 426.419 413.434 412.782 413.434C399.146 413.434 388.092 424.261 388.092 437.616C388.092 450.972 399.146 461.799 412.782 461.799Z" fill="black"/>
<path d="M417.044 461.799C430.68 461.799 441.734 451.213 441.734 438.155C441.734 425.097 430.68 414.511 417.044 414.511C403.407 414.511 392.353 425.097 392.353 438.155C392.353 451.213 403.407 461.799 417.044 461.799Z" fill="#FBD56F"/>
<path d="M59.262 450.906C76.104 450.906 89.7571 448.776 89.7571 446.149C89.7571 443.522 76.104 441.392 59.262 441.392C42.4201 441.392 28.767 443.522 28.767 446.149C28.767 448.776 42.4201 450.906 59.262 450.906Z" fill="#F90000"/>
<path d="M71.8716 438.367C73.1775 437.247 74.4026 435.927 74.7789 434.319C75.1552 432.711 74.4125 430.783 72.7474 430.195C70.8815 429.537 68.8876 430.73 67.376 431.935C65.8643 433.14 64.1318 434.516 62.1534 434.26C63.1711 433.409 63.9325 432.33 64.3634 431.126C64.7943 429.923 64.8801 428.637 64.6123 427.394C64.5254 426.881 64.2891 426.399 63.9284 426C62.8927 424.978 61.015 425.417 59.7748 426.222C55.8308 428.782 54.7303 433.725 54.7089 438.174C54.3111 436.569 54.6461 434.897 54.6363 433.251C54.6265 431.604 54.1376 429.779 52.6325 428.895C51.6949 428.429 50.6405 428.201 49.5763 428.232C47.8034 428.172 45.8288 428.336 44.6181 429.533C43.1137 431.019 43.5039 433.513 44.8126 435.15C46.1214 436.787 48.1121 437.812 49.9445 438.943C51.4144 439.75 52.6679 440.854 53.6119 442.17C53.7228 442.354 53.8139 442.547 53.8838 442.747H64.9982C67.4931 441.58 69.8053 440.107 71.8716 438.367V438.367Z" fill="#F90000"/>
<path d="M335.037 415.131C336.396 416.848 337.507 418.72 338.342 420.7C338.563 421.212 338.779 421.751 338.984 422.315C342.269 431.375 337.064 442.239 335.575 441.067C334.087 439.895 329.449 437.721 328.553 440.777C327.656 443.832 324.343 446.955 324.343 446.955C318.308 452.556 312.845 446.504 309.259 440.252C308.087 438.189 307.046 436.065 306.139 433.891C305.343 431.971 304.886 430.644 304.886 430.644L330.024 410.881C330.024 410.881 332.454 411.911 335.037 415.131Z" fill="#F90000"/>
<path d="M295.418 427.768C296.777 429.485 297.888 431.357 298.723 433.337C298.944 433.849 299.16 434.387 299.365 434.952C302.65 444.012 297.445 454.876 295.956 453.704C294.468 452.532 289.83 450.358 288.934 453.413C288.037 456.469 284.724 459.592 284.724 459.592C278.689 465.193 273.226 459.141 269.64 452.889C268.469 450.826 267.427 448.702 266.52 446.528C265.724 444.608 265.267 443.281 265.267 443.281L290.405 423.518C290.405 423.518 292.835 424.548 295.418 427.768Z" fill="#F90000"/>
<path d="M215.868 445.226C215.727 447.348 215.287 449.443 214.561 451.46C214.376 451.984 214.171 452.526 213.938 453.081C210.201 461.991 198.679 467.289 198.343 465.511C198.008 463.732 195.942 459.327 193.138 461.151C190.334 462.976 185.624 463.429 185.624 463.429C177.103 464.188 177.083 456.312 178.647 449.386C179.172 447.108 179.839 444.86 180.645 442.652C181.36 440.705 181.926 439.414 181.926 439.414L214.948 439.002C214.948 439.002 216.106 441.226 215.868 445.226Z" fill="#F90000"/>
<path d="M173.202 435.297C173.061 437.419 172.621 439.514 171.895 441.531C171.71 442.055 171.505 442.597 171.272 443.152C167.535 452.062 156.013 457.36 155.677 455.582C155.342 453.803 153.276 449.398 150.472 451.222C147.668 453.047 142.958 453.5 142.958 453.5C134.437 454.259 134.417 446.382 135.981 439.457C136.506 437.179 137.173 434.93 137.979 432.723C138.694 430.776 139.26 429.485 139.26 429.485L172.282 429.073C172.282 429.073 173.44 431.296 173.202 435.297Z" fill="#F90000"/>
<path opacity="0.2" d="M335.037 415.131C336.396 416.848 337.507 418.72 338.342 420.7C338.563 421.212 338.779 421.751 338.984 422.315C342.269 431.375 337.064 442.239 335.575 441.067C334.087 439.895 329.449 437.721 328.553 440.777C327.656 443.832 324.343 446.955 324.343 446.955C318.308 452.556 312.845 446.504 309.259 440.252C308.087 438.189 307.046 436.065 306.139 433.891C305.343 431.971 304.886 430.644 304.886 430.644L330.024 410.881C330.024 410.881 332.454 411.911 335.037 415.131Z" fill="black"/>
<path opacity="0.2" d="M295.418 427.768C296.777 429.485 297.888 431.357 298.723 433.337C298.944 433.849 299.16 434.387 299.365 434.952C302.65 444.012 297.445 454.876 295.956 453.704C294.468 452.532 289.83 450.358 288.934 453.413C288.037 456.469 284.724 459.592 284.724 459.592C278.689 465.193 273.226 459.141 269.64 452.889C268.469 450.826 267.427 448.702 266.52 446.528C265.724 444.608 265.267 443.281 265.267 443.281L290.405 423.518C290.405 423.518 292.835 424.548 295.418 427.768Z" fill="black"/>
<path opacity="0.2" d="M215.868 445.226C215.727 447.348 215.287 449.443 214.561 451.46C214.376 451.984 214.171 452.526 213.938 453.081C210.201 461.991 198.679 467.289 198.343 465.511C198.008 463.732 195.942 459.327 193.138 461.151C190.334 462.976 185.624 463.429 185.624 463.429C177.103 464.188 177.083 456.312 178.647 449.386C179.172 447.108 179.839 444.86 180.645 442.652C181.36 440.705 181.926 439.414 181.926 439.414L214.948 439.002C214.948 439.002 216.106 441.226 215.868 445.226Z" fill="black"/>
<path opacity="0.2" d="M173.202 435.297C173.061 437.419 172.621 439.514 171.895 441.531C171.71 442.055 171.505 442.597 171.272 443.152C167.535 452.062 156.013 457.36 155.677 455.582C155.342 453.803 153.276 449.398 150.472 451.222C147.668 453.047 142.958 453.5 142.958 453.5C134.437 454.259 134.417 446.382 135.981 439.457C136.506 437.179 137.173 434.93 137.979 432.723C138.694 430.776 139.26 429.485 139.26 429.485L172.282 429.073C172.282 429.073 173.44 431.296 173.202 435.297Z" fill="black"/>
<path d="M402.091 301.762C402.091 383.144 372.254 449.117 234.566 449.117C142.045 449.117 70.4652 427.905 67.0414 301.762C64.8331 220.405 142.045 154.406 234.566 154.406C327.088 154.406 402.091 220.379 402.091 301.762Z" fill="#F90000"/>
<path opacity="0.2" d="M203.14 156.978H203.16C203.155 156.981 203.15 156.982 203.145 156.983L203.14 156.978Z" fill="black"/>
<path opacity="0.2" d="M203.468 156.929C203.893 156.865 204.735 156.757 205.957 156.671L203.233 156.969C203.272 156.96 203.321 156.951 203.38 156.942C203.409 156.938 203.433 156.933 203.468 156.929Z" fill="black"/>
<path opacity="0.2" d="M327.255 217.139L315.027 221.201C308.794 213.488 302.086 206.11 294.939 199.104C287.137 191.426 278.625 184.391 269.499 178.077C238.191 156.667 213.974 156.121 205.977 156.671L224.358 154.676C241.731 157.435 258.437 163.007 273.706 171.136C284.388 176.818 294.336 183.599 303.361 191.351C319.366 205.057 327.255 217.139 327.255 217.139Z" fill="black"/>
<path opacity="0.2" d="M216.713 224.812C216.713 224.812 200.572 175.166 214.268 161.627C214.268 161.627 235.789 154.857 251.93 193.219L216.713 224.812Z" fill="black"/>
<path d="M298.445 178.443C298.445 178.443 341.25 144.88 360.186 151.021C360.186 151.021 375.543 166.494 343.938 195.53L298.445 178.443Z" fill="#F90000"/>
<path opacity="0.2" d="M298.445 178.443C298.445 178.443 341.25 144.88 360.186 151.021C360.186 151.021 375.543 166.494 343.938 195.53L298.445 178.443Z" fill="black"/>
<path d="M431.928 339.221C431.928 382.966 397.907 417.525 365.896 417.525C333.885 417.525 316.005 382.966 316.005 339.221C316.005 295.476 342.009 261.724 373.966 260.014C424.591 257.307 431.928 295.476 431.928 339.221Z" fill="#F90000"/>
<path opacity="0.2" d="M431.928 339.221C431.928 382.966 397.907 417.525 365.896 417.525C333.885 417.525 316.005 382.966 316.005 339.221C316.005 295.476 342.009 261.724 373.966 260.014C424.591 257.307 431.928 295.476 431.928 339.221Z" fill="black"/>
<path d="M363.939 358.402C369.882 358.402 374.7 352.744 374.7 345.765C374.7 338.786 369.882 333.128 363.939 333.128C357.996 333.128 353.179 338.786 353.179 345.765C353.179 352.744 357.996 358.402 363.939 358.402Z" fill="#F90000"/>
<path d="M402.091 347.57C408.034 347.57 412.852 341.913 412.852 334.934C412.852 327.954 408.034 322.297 402.091 322.297C396.148 322.297 391.33 327.954 391.33 334.934C391.33 341.913 396.148 347.57 402.091 347.57Z" fill="#F90000"/>
<path d="M305.45 183.2C305.457 186.03 304.742 188.823 303.361 191.351C301.539 194.71 298.583 197.431 294.939 199.104C287.137 191.427 278.625 184.391 269.499 178.077C270.312 175.499 271.751 173.125 273.706 171.136C275.391 169.402 277.453 168.014 279.756 167.062C282.06 166.11 284.554 165.614 287.078 165.607C297.223 165.607 305.45 173.483 305.45 183.2Z" fill="#FAD46F"/>
</g>
<defs>
<linearGradient id="paint0_linear" x1="552.905" y1="474.399" x2="552.905" y2="168.642" gradientUnits="userSpaceOnUse">
<stop stop-color="#808080" stop-opacity="0.25"/>
<stop offset="0.53514" stop-color="#808080" stop-opacity="0.12"/>
<stop offset="1" stop-color="#808080" stop-opacity="0.1"/>
</linearGradient>
<clipPath id="clip0">
<rect width="735" height="487" fill="white"/>
</clipPath>
</defs>
</svg>
