<svg width="1440" height="900" viewBox="0 0 1440 900" fill="none" xmlns="http://www.w3.org/2000/svg">
<rect width="1440" height="900" fill="#E5E5E5"/>
<g clip-path="url(#clip0)">
<rect width="1440" height="900" fill="white"/>
<path d="M-112 0H648C662.746 80.3795 531 166.5 697.127 215C863.254 263.5 884.364 682.285 648 900H-112V0Z" fill="#F90000"/>
<mask id="mask0" mask-type="alpha" maskUnits="userSpaceOnUse" x="-112" y="0" width="936" height="900">
<path d="M-112 0H648C662.746 80.3795 531 166.5 697.127 215C863.254 263.5 884.364 682.285 648 900H-112V0Z" fill="#F90000"/>
</mask>
<g mask="url(#mask0)">
<path d="M662.054 620.509C634.121 733.643 491.897 905.016 360.303 732.958C228.709 560.899 157.435 615.951 185.368 502.817C213.3 389.682 381.849 470.47 474.287 356.814C677.612 300.921 689.986 507.374 662.054 620.509Z" fill="url(#paint0_linear)"/>
<path d="M126 505.5C126 616.233 -107 848 -45.5 706C16 564 -217 616.233 -217 505.5C-217 394.767 -84.5 228.5 -45.5 305C-6.5 381.5 126 394.767 126 505.5Z" fill="url(#paint1_linear)"/>
<path d="M-124.729 713.431C-91.5528 601.721 58.5049 437.164 181.936 615.17C305.366 793.176 152 729.5 345.953 853.215C539.906 976.931 148.178 876.368 50.5423 985.592C-155.167 1031.95 -157.904 825.141 -124.729 713.431Z" fill="url(#paint2_linear)"/>
<path d="M285.431 184C401.931 333 135.93 680 68.4306 447C0.930771 214 -26.0692 316.5 -148.569 184C-220.614 106.074 -163.07 -53.1263 -99.5696 -21.5631C-36.0696 10 19.0687 -79 68.4306 -79C188.276 -79 168.931 35 285.431 184Z" fill="url(#paint3_linear)"/>
<path d="M658.356 191.571C635.994 305.937 341.544 539.957 362.47 318.654C383.397 97.3509 154.119 211.717 176.481 97.3509C198.842 -17.0155 371.143 55.4263 457.908 -62.618C658.253 -128.395 680.718 77.2043 658.356 191.571Z" fill="url(#paint4_linear)"/>
<path d="M721.254 862.977C638.69 863.608 328.808 674.968 570.408 687.124C812.007 699.279 845.006 306.016 718.552 508.987C592.098 711.959 868.653 587.089 869.399 684.841C870.145 782.592 800.889 749.366 721.254 862.977Z" fill="url(#paint5_linear)"/>
</g>
</g>
<defs>
<linearGradient id="paint0_linear" x1="481.192" y1="328.846" x2="369.343" y2="781.868" gradientUnits="userSpaceOnUse">
<stop stop-color="#FF7A00"/>
<stop offset="1" stop-color="#FF7A00" stop-opacity="0"/>
</linearGradient>
<linearGradient id="paint1_linear" x1="-217" y1="472.5" x2="65.5" y2="478" gradientUnits="userSpaceOnUse">
<stop stop-color="#FF7A00"/>
<stop offset="1" stop-color="#C4C4C4" stop-opacity="0"/>
</linearGradient>
<linearGradient id="paint2_linear" x1="42.3408" y1="1013.21" x2="175.185" y2="565.892" gradientUnits="userSpaceOnUse">
<stop stop-color="#FF7A00"/>
<stop offset="1" stop-color="#FF7A00" stop-opacity="0"/>
</linearGradient>
<linearGradient id="paint3_linear" x1="66.2826" y1="-79" x2="66.2826" y2="525.292" gradientUnits="userSpaceOnUse">
<stop stop-color="#FF7A00"/>
<stop offset="1" stop-color="#FF7A00" stop-opacity="0"/>
</linearGradient>
<linearGradient id="paint4_linear" x1="463.436" y1="-90.8901" x2="373.893" y2="367.063" gradientUnits="userSpaceOnUse">
<stop stop-color="#FF7A00"/>
<stop offset="1" stop-color="#FF7A00" stop-opacity="0"/>
</linearGradient>
<linearGradient id="paint5_linear" x1="822.381" y1="682.7" x2="523.39" y2="684.982" gradientUnits="userSpaceOnUse">
<stop stop-color="#FF7A00"/>
<stop offset="1" stop-color="#FF7A00" stop-opacity="0"/>
</linearGradient>
<clipPath id="clip0">
<rect width="1440" height="900" fill="white"/>
</clipPath>
</defs>
</svg>
