<svg width="1440" height="1205" viewBox="0 0 1440 1205" fill="none" xmlns="http://www.w3.org/2000/svg">
<g clip-path="url(#clip0)">
<rect width="1440" height="1205" fill="white"/>
<path d="M544.785 0H-135V1205C39.5621 1188.83 29.7535 990.964 322.439 1087.45C447.423 1128.65 392.306 901.045 544.785 901.045C697.265 901.045 738.335 218.867 544.785 237.557C351.235 256.247 544.785 0 544.785 0Z" fill="#F90000"/>
<path d="M1576.68 602.5C1576.68 793.314 1516.91 948 1443.18 948C1414 859 1407.68 885 1331.53 792C1255.39 699 1356.5 569.5 1356.5 569.5C1356.5 569.5 1429.68 423.5 1373.5 364C1317.32 304.5 1443.18 257 1443.18 257C1443.18 257 1576.68 411.686 1576.68 602.5Z" fill="#F90000"/>
<mask id="mask0" mask-type="alpha" maskUnits="userSpaceOnUse" x="1303" y="257" width="274" height="691">
<path d="M1576.68 602.5C1576.68 793.314 1516.88 948 1443.11 948C1413.92 859 1407.59 885 1331.41 792C1255.22 699 1356.39 569.5 1356.39 569.5C1356.39 569.5 1429.6 423.5 1373.4 364C1317.19 304.5 1443.11 257 1443.11 257C1443.11 257 1576.68 411.686 1576.68 602.5Z" fill="#F90000"/>
</mask>
<g mask="url(#mask0)">
<path d="M1459.55 677.458C1478.56 707.918 1483.05 757.684 1446.42 762.246C1409.8 766.808 1415.14 755.819 1402.78 767.061C1390.41 778.304 1350.52 745.425 1364.47 736.727C1378.42 728.03 1351.68 704.355 1354.07 688.999C1356.45 673.676 1397.24 662.679 1370.5 619.829C1343.76 576.98 1440.54 646.998 1459.55 677.458Z" fill="url(#paint0_linear)"/>
<path d="M1435.5 366.087C1390.34 395.944 1480.51 436.544 1446.62 451.161C1412.74 465.777 1414.79 453.734 1406.06 467.984C1397.34 482.234 1330.7 483.2 1360.8 449.567C1390.89 415.934 1364.24 414.31 1362.24 398.899C1360.24 383.52 1371.54 369.314 1333.88 335.647C1296.22 301.98 1424.68 308.351 1435.5 366.087Z" fill="url(#paint1_linear)"/>
<path d="M1413.14 719.838C1437.77 693.706 1484.77 676.683 1498.52 710.917C1512.26 745.15 1500.27 742.79 1514.3 751.875C1528.33 760.959 1506.68 807.897 1494.71 796.629C1482.74 785.36 1466.65 817.243 1451.19 818.846C1435.76 820.446 1372.4 868.717 1404.91 796.629C1437.43 724.54 1388.52 745.97 1413.14 719.838Z" fill="url(#paint2_linear)"/>
</g>
<mask id="mask1" mask-type="alpha" maskUnits="userSpaceOnUse" x="-135" y="0" width="810" height="1205">
<path d="M544.785 0H-135V1205C39.5621 1188.83 29.7535 990.964 322.439 1087.45C447.423 1128.65 392.306 901.045 544.785 901.045C697.265 901.045 738.335 218.867 544.785 237.557C351.235 256.247 544.785 0 544.785 0Z" fill="#F90000"/>
</mask>
<g mask="url(#mask1)">
<mask id="mask2" mask-type="alpha" maskUnits="userSpaceOnUse" x="-198" y="0" width="936" height="900">
<path d="M-198 0H562C576.746 80.3795 445 166.5 611.127 215C777.254 263.5 798.364 682.285 562 900H-198V0Z" fill="#F90000"/>
</mask>
<g mask="url(#mask2)">
<path d="M576.054 620.509C548.121 733.643 405.897 905.016 274.303 732.958C142.709 560.899 71.4353 615.951 99.3679 502.817C127.301 389.682 295.849 470.47 388.287 356.814C591.612 300.921 603.987 507.374 576.054 620.509Z" fill="url(#paint3_linear)"/>
<path d="M40 505.5C40 616.233 -193 848 -131.5 706C-70 564 -303 616.233 -303 505.5C-303 394.767 -170.5 228.5 -131.5 305C-92.5 381.5 40 394.767 40 505.5Z" fill="url(#paint4_linear)"/>
<path d="M-210.729 713.431C-177.553 601.721 -27.4951 437.164 95.9357 615.17C219.366 793.176 66 729.5 259.953 853.215C453.906 976.931 62.1777 876.368 -35.4577 985.592C-241.167 1031.95 -243.904 825.141 -210.729 713.431Z" fill="url(#paint5_linear)"/>
<path d="M199.431 184C315.931 333 49.9304 680 -17.5694 447C-85.0692 214 -112.069 316.5 -234.569 184C-306.614 106.074 -249.07 -53.1263 -185.57 -21.5631C-122.07 10 -66.9313 -79 -17.5694 -79C102.276 -79 82.9307 35 199.431 184Z" fill="url(#paint6_linear)"/>
<path d="M572.356 191.571C549.994 305.937 255.544 539.957 276.47 318.654C297.397 97.3509 68.1188 211.717 90.4806 97.3509C112.842 -17.0155 285.143 55.4263 371.908 -62.618C572.253 -128.395 594.717 77.2043 572.356 191.571Z" fill="url(#paint7_linear)"/>
<path d="M635.254 862.977C552.69 863.608 242.808 674.968 484.408 687.124C726.007 699.279 759.006 306.016 632.552 508.987C506.098 711.959 782.653 587.089 783.399 684.841C784.145 782.592 714.889 749.366 635.254 862.977Z" fill="url(#paint8_linear)"/>
<path d="M503 1004.06C503 1059.84 497 990.703 388.5 1105.06C280 1219.41 116.5 945.5 216 980.558C315.5 1015.62 306.5 805.558 388.5 903.058C470.5 1000.56 503 948.278 503 1004.06Z" fill="url(#paint9_linear)"/>
</g>
<path d="M549.783 816.452C662.783 800.952 586.283 864.452 510.976 969.951C435.668 1075.45 455.283 1210.88 409.783 1082.92C364.283 954.952 281.283 1354.45 220.783 1141.95C160.283 929.452 98.4375 1124.29 48.283 1093.68C-45.6268 1036.36 -108.217 933.636 -108.217 816.452C-108.217 636.683 -148.419 843.452 33.2831 843.452C214.985 843.452 549.783 636.683 549.783 816.452Z" fill="#F90000"/>
<mask id="mask3" mask-type="alpha" maskUnits="userSpaceOnUse" x="-112" y="743" width="720" height="463">
<path d="M549.783 816.452C662.783 800.952 586.283 864.452 510.976 969.951C435.668 1075.45 455.283 1210.88 409.783 1082.92C364.283 954.952 281.283 1354.45 220.783 1141.95C160.283 929.452 98.4375 1124.29 48.283 1093.68C-45.6268 1036.36 -108.217 933.636 -108.217 816.452C-108.217 636.683 -148.419 843.452 33.2831 843.452C214.985 843.452 549.783 636.683 549.783 816.452Z" fill="#F90000"/>
</mask>
<g mask="url(#mask3)">
<path d="M-209.445 714.383C-176.27 602.673 -26.212 438.116 97.2188 616.122C220.65 794.128 67.2831 730.452 261.236 854.167C455.19 977.882 63.4608 877.32 -34.1746 986.544C-239.884 1032.9 -242.621 826.093 -209.445 714.383Z" fill="url(#paint10_linear)"/>
<path d="M504.283 1005.01C504.283 1060.79 498.283 991.655 389.783 1106.01C281.283 1220.37 117.783 946.452 217.283 981.51C316.783 1016.57 307.783 806.51 389.783 904.01C471.783 1001.51 504.283 949.229 504.283 1005.01Z" fill="url(#paint11_linear)"/>
</g>
</g>
</g>
<defs>
<linearGradient id="paint0_linear" x1="1351.42" y1="616.419" x2="1445.14" y2="766.775" gradientUnits="userSpaceOnUse">
<stop stop-color="#FF7A00"/>
<stop offset="1" stop-color="#FF7A00" stop-opacity="0"/>
</linearGradient>
<linearGradient id="paint1_linear" x1="1432.43" y1="300.5" x2="1378.95" y2="484.014" gradientUnits="userSpaceOnUse">
<stop stop-color="#FF7A00"/>
<stop offset="1" stop-color="#FF7A00" stop-opacity="0"/>
</linearGradient>
<linearGradient id="paint2_linear" x1="1355.13" y1="817.686" x2="1476.59" y2="688.668" gradientUnits="userSpaceOnUse">
<stop stop-color="#FF7A00"/>
<stop offset="1" stop-color="#FF7A00" stop-opacity="0"/>
</linearGradient>
<linearGradient id="paint3_linear" x1="395.192" y1="328.846" x2="283.343" y2="781.868" gradientUnits="userSpaceOnUse">
<stop stop-color="#FF7A00"/>
<stop offset="1" stop-color="#FF7A00" stop-opacity="0"/>
</linearGradient>
<linearGradient id="paint4_linear" x1="-303" y1="472.5" x2="-20.5" y2="478" gradientUnits="userSpaceOnUse">
<stop stop-color="#FF7A00"/>
<stop offset="1" stop-color="#C4C4C4" stop-opacity="0"/>
</linearGradient>
<linearGradient id="paint5_linear" x1="-43.6592" y1="1013.21" x2="89.1854" y2="565.892" gradientUnits="userSpaceOnUse">
<stop stop-color="#FF7A00"/>
<stop offset="1" stop-color="#FF7A00" stop-opacity="0"/>
</linearGradient>
<linearGradient id="paint6_linear" x1="-19.7174" y1="-79" x2="-19.7174" y2="525.292" gradientUnits="userSpaceOnUse">
<stop stop-color="#FF7A00"/>
<stop offset="1" stop-color="#FF7A00" stop-opacity="0"/>
</linearGradient>
<linearGradient id="paint7_linear" x1="377.436" y1="-90.8901" x2="287.893" y2="367.063" gradientUnits="userSpaceOnUse">
<stop stop-color="#FF7A00"/>
<stop offset="1" stop-color="#FF7A00" stop-opacity="0"/>
</linearGradient>
<linearGradient id="paint8_linear" x1="736.381" y1="682.7" x2="437.39" y2="684.982" gradientUnits="userSpaceOnUse">
<stop stop-color="#FF7A00"/>
<stop offset="1" stop-color="#FF7A00" stop-opacity="0"/>
</linearGradient>
<linearGradient id="paint9_linear" x1="377.5" y1="900" x2="377.5" y2="1102" gradientUnits="userSpaceOnUse">
<stop stop-color="#FF7A00"/>
<stop offset="1" stop-color="#FF7A00" stop-opacity="0"/>
</linearGradient>
<linearGradient id="paint10_linear" x1="-42.376" y1="1014.16" x2="90.4685" y2="566.844" gradientUnits="userSpaceOnUse">
<stop stop-color="#FF7A00"/>
<stop offset="1" stop-color="#FF7A00" stop-opacity="0"/>
</linearGradient>
<linearGradient id="paint11_linear" x1="378.783" y1="900.952" x2="378.783" y2="1102.95" gradientUnits="userSpaceOnUse">
<stop stop-color="#FF7A00"/>
<stop offset="1" stop-color="#FF7A00" stop-opacity="0"/>
</linearGradient>
<clipPath id="clip0">
<rect width="1440" height="1205" fill="white"/>
</clipPath>
</defs>
</svg>
